<?xml version="1.0" encoding="utf-8"?>
<!-- Generator: Adobe Illustrator 23.0.5, SVG Export Plug-In . SVG Version: 6.00 Build 0)  -->
<svg version="1.1" xmlns="http://www.w3.org/2000/svg" xmlns:xlink="http://www.w3.org/1999/xlink" x="0px" y="0px"
	 viewBox="0 0 841.89 595.28" style="enable-background:new 0 0 841.89 595.28;" xml:space="preserve">
<style type="text/css">
	.st0{fill:#B8C5D9;}
	.st1{clip-path:url(#SVGID_2_);fill:#194649;}
	.st2{clip-path:url(#SVGID_2_);}
	.st3{fill:#194649;}
	.st4{fill:#29265B;}
	.st5{fill:#005858;}
	.st6{opacity:0.4;}
	.st7{opacity:0.66;}
	.st8{filter:url(#Adobe_OpacityMaskFilter);}
	.st9{fill:url(#SVGID_4_);}
	.st10{mask:url(#SVGID_3_);fill:#FFFFFF;}
	.st11{filter:url(#Adobe_OpacityMaskFilter_1_);}
	.st12{fill:url(#SVGID_6_);}
	.st13{mask:url(#SVGID_5_);fill:#FFFFFF;}
	.st14{filter:url(#Adobe_OpacityMaskFilter_2_);}
	.st15{fill:url(#SVGID_8_);}
	.st16{mask:url(#SVGID_7_);fill:#FFFFFF;}
	.st17{filter:url(#Adobe_OpacityMaskFilter_3_);}
	.st18{fill:url(#SVGID_10_);}
	.st19{mask:url(#SVGID_9_);fill:#FFFFFF;}
	.st20{filter:url(#Adobe_OpacityMaskFilter_4_);}
	.st21{fill:url(#SVGID_12_);}
	.st22{mask:url(#SVGID_11_);fill:#FFFFFF;}
	.st23{filter:url(#Adobe_OpacityMaskFilter_5_);}
	.st24{fill:url(#SVGID_14_);}
	.st25{mask:url(#SVGID_13_);fill:#FFFFFF;}
	.st26{filter:url(#Adobe_OpacityMaskFilter_6_);}
	.st27{fill:url(#SVGID_16_);}
	.st28{mask:url(#SVGID_15_);fill:#FFFFFF;}
	.st29{filter:url(#Adobe_OpacityMaskFilter_7_);}
	.st30{fill:url(#SVGID_18_);}
	.st31{mask:url(#SVGID_17_);fill:#FFFFFF;}
	.st32{filter:url(#Adobe_OpacityMaskFilter_8_);}
	.st33{fill:url(#SVGID_20_);}
	.st34{mask:url(#SVGID_19_);fill:#FFFFFF;}
	.st35{filter:url(#Adobe_OpacityMaskFilter_9_);}
	.st36{fill:url(#SVGID_22_);}
	.st37{mask:url(#SVGID_21_);fill:#FFFFFF;}
	.st38{filter:url(#Adobe_OpacityMaskFilter_10_);}
	.st39{fill:url(#SVGID_24_);}
	.st40{mask:url(#SVGID_23_);fill:#FFFFFF;}
	.st41{filter:url(#Adobe_OpacityMaskFilter_11_);}
	.st42{fill:url(#SVGID_26_);}
	.st43{mask:url(#SVGID_25_);fill:#FFFFFF;}
	.st44{filter:url(#Adobe_OpacityMaskFilter_12_);}
	.st45{fill:url(#SVGID_28_);}
	.st46{mask:url(#SVGID_27_);fill:#FFFFFF;}
	.st47{filter:url(#Adobe_OpacityMaskFilter_13_);}
	.st48{fill:url(#SVGID_30_);}
	.st49{mask:url(#SVGID_29_);fill:#FFFFFF;}
	.st50{filter:url(#Adobe_OpacityMaskFilter_14_);}
	.st51{fill:url(#SVGID_32_);}
	.st52{mask:url(#SVGID_31_);fill:#FFFFFF;}
	.st53{filter:url(#Adobe_OpacityMaskFilter_15_);}
	.st54{fill:url(#SVGID_34_);}
	.st55{mask:url(#SVGID_33_);fill:#FFFFFF;}
	.st56{filter:url(#Adobe_OpacityMaskFilter_16_);}
	.st57{fill:url(#SVGID_36_);}
	.st58{mask:url(#SVGID_35_);fill:#FFFFFF;}
	.st59{filter:url(#Adobe_OpacityMaskFilter_17_);}
	.st60{fill:url(#SVGID_38_);}
	.st61{mask:url(#SVGID_37_);fill:#FFFFFF;}
</style>
<g id="Layer_2">
	<path class="st0" d="M708.57,78.26c-2.68,5.33-7.01,10.13-12.58,14.09c-9.73,6.91-23.21,11.21-38.12,11.21
		c-6.23,0-12.21-0.75-17.78-2.13c-5.97-1.48-11.47-3.69-16.27-6.46v1.29c4.77,2.7,10.19,4.85,16.05,6.3
		c5.64,1.4,11.69,2.15,17.99,2.15c15.08,0,28.74-4.34,38.68-11.39c5.87-4.17,10.45-9.31,13.2-15.06H708.57L708.57,78.26z"/>
</g>
<g id="Layer_1">
	<g>
		<defs>
			<rect id="SVGID_1_" x="623.72" y="78.37" width="101.53" height="56.41"/>
		</defs>
		<clipPath id="SVGID_2_">
			<use xlink:href="#SVGID_1_"  style="overflow:visible;"/>
		</clipPath>
		<path class="st1" d="M699.38,70.41c-1.38,17.78-24.46,31.93-52.73,31.93c-2.84,0-5.62-0.14-8.33-0.42
			c-3.83-0.39-7.52-1.04-11.03-1.92c4.11,1.16,8.49,2,13.08,2.46c2.71,0.27,5.5,0.42,8.33,0.42c28.56,0,51.82-14.44,52.76-32.47
			H699.38z"/>
		<g class="st2">
			<path class="st3" d="M650.54,103.37c-2.79,0-5.6-0.14-8.34-0.42c-4.51-0.46-8.92-1.29-13.09-2.47c0,0,8.61,1.67,13.11,2.13
				c2.74,0.28,5.54,0.42,8.32,0.42c13.77,0,26.8-3.36,36.68-9.46c9.83-6.07,15.5-14.17,15.95-22.84h0.25
				c-0.23,4.45-1.8,8.77-4.66,12.8c-2.76,3.89-6.61,7.37-11.44,10.36C677.42,100,664.35,103.37,650.54,103.37z"/>
		</g>
	</g>
	<g>
		<g>
			<path class="st4" d="M635.19,87.71h5.67c0.01,0.12,0.02,0.24,0.03,0.34c0.01,0.11,0.01,0.21,0.01,0.32
				c0,0.63-0.08,1.21-0.23,1.74c-0.15,0.53-0.32,0.95-0.51,1.25c-0.6,0.95-1.31,1.64-2.12,2.09c-0.81,0.45-1.76,0.67-2.85,0.67
				c-0.82,0-1.58-0.14-2.26-0.42c-0.69-0.28-1.3-0.68-1.83-1.2c-0.54-0.52-0.94-1.13-1.21-1.82c-0.27-0.69-0.41-1.44-0.41-2.25
				c0-0.81,0.14-1.56,0.41-2.25c0.27-0.69,0.68-1.3,1.21-1.83c0.54-0.54,1.15-0.94,1.83-1.2c0.69-0.27,1.44-0.4,2.26-0.4
				c1.79,0,3.25,0.65,4.4,1.93l-2.02,1.76c-0.28-0.41-0.62-0.72-1.02-0.93c-0.4-0.21-0.85-0.32-1.36-0.32
				c-0.43,0-0.82,0.08-1.18,0.24c-0.36,0.16-0.67,0.38-0.93,0.67c-0.26,0.29-0.46,0.63-0.61,1.03c-0.15,0.39-0.22,0.83-0.22,1.31
				c0,0.48,0.07,0.92,0.22,1.31c0.15,0.4,0.35,0.74,0.61,1.02c0.26,0.29,0.57,0.51,0.93,0.67c0.36,0.16,0.75,0.24,1.18,0.24
				c0.67,0,1.25-0.16,1.74-0.49c0.49-0.32,0.86-0.79,1.1-1.39h-2.84V87.71z"/>
			<path class="st4" d="M642.67,82.97h2.75v8.72h2.76v2.22h-5.52V82.97z"/>
			<path class="st4" d="M652.82,82.97h3.4l3.75,10.95h-2.91l-0.44-1.59h-4.21l-0.45,1.59h-2.89L652.82,82.97z M655.99,90.26
				l-1.48-5.07l-1.48,5.07H655.99z"/>
			<path class="st4" d="M663.27,90.75c0.02,0.36,0.15,0.65,0.39,0.86c0.24,0.21,0.57,0.32,0.99,0.32c0.43,0,0.76-0.09,0.99-0.27
				c0.23-0.18,0.34-0.43,0.34-0.73c0-0.34-0.16-0.6-0.47-0.78c-0.31-0.19-0.75-0.38-1.32-0.6c-0.36-0.13-0.73-0.27-1.11-0.41
				c-0.38-0.14-0.75-0.35-1.13-0.62c-0.36-0.28-0.64-0.62-0.84-1.03c-0.2-0.41-0.29-0.88-0.29-1.39c0-0.49,0.09-0.93,0.26-1.34
				c0.17-0.41,0.42-0.75,0.75-1.05c0.33-0.29,0.72-0.52,1.18-0.69c0.46-0.17,0.97-0.25,1.54-0.25c1.24,0,2.18,0.29,2.83,0.86
				c0.65,0.57,0.99,1.41,1.01,2.51h-2.51c-0.01-0.41-0.12-0.73-0.34-0.95c-0.22-0.22-0.53-0.34-0.93-0.34c-0.39,0-0.7,0.1-0.92,0.29
				c-0.22,0.19-0.33,0.44-0.33,0.75c0,0.19,0.05,0.35,0.14,0.48c0.09,0.13,0.23,0.24,0.41,0.34c0.18,0.1,0.4,0.2,0.67,0.29
				c0.27,0.1,0.57,0.21,0.92,0.33c0.44,0.16,0.86,0.33,1.27,0.5c0.41,0.17,0.78,0.44,1.11,0.8c0.49,0.54,0.73,1.2,0.73,2.01
				c0,0.53-0.09,1-0.28,1.43c-0.19,0.43-0.45,0.8-0.8,1.11c-0.35,0.31-0.77,0.55-1.28,0.72c-0.5,0.17-1.06,0.26-1.68,0.26
				c-0.59,0-1.11-0.08-1.57-0.24c-0.46-0.16-0.86-0.38-1.19-0.68c-0.33-0.29-0.59-0.65-0.77-1.07c-0.18-0.42-0.28-0.89-0.29-1.42
				H663.27z"/>
			<path class="st4" d="M672.52,90.75c0.02,0.36,0.15,0.65,0.39,0.86c0.24,0.21,0.57,0.32,0.99,0.32c0.43,0,0.76-0.09,0.99-0.27
				c0.23-0.18,0.34-0.43,0.34-0.73c0-0.34-0.16-0.6-0.47-0.78c-0.31-0.19-0.75-0.38-1.33-0.6c-0.36-0.13-0.73-0.27-1.11-0.41
				c-0.38-0.14-0.75-0.35-1.13-0.62c-0.36-0.28-0.64-0.62-0.84-1.03c-0.2-0.41-0.29-0.88-0.29-1.39c0-0.49,0.09-0.93,0.26-1.34
				c0.17-0.41,0.42-0.75,0.75-1.05c0.32-0.29,0.72-0.52,1.18-0.69c0.46-0.17,0.97-0.25,1.54-0.25c1.23,0,2.18,0.29,2.83,0.86
				c0.65,0.57,0.99,1.41,1.01,2.51h-2.51c-0.01-0.41-0.13-0.73-0.34-0.95c-0.22-0.22-0.53-0.34-0.93-0.34c-0.39,0-0.7,0.1-0.92,0.29
				c-0.22,0.19-0.33,0.44-0.33,0.75c0,0.19,0.05,0.35,0.14,0.48c0.09,0.13,0.23,0.24,0.41,0.34c0.18,0.1,0.4,0.2,0.67,0.29
				c0.27,0.1,0.57,0.21,0.92,0.33c0.44,0.16,0.86,0.33,1.27,0.5c0.41,0.17,0.78,0.44,1.11,0.8c0.49,0.54,0.73,1.2,0.73,2.01
				c0,0.53-0.09,1-0.28,1.43c-0.19,0.43-0.45,0.8-0.8,1.11c-0.35,0.31-0.77,0.55-1.27,0.72c-0.5,0.17-1.06,0.26-1.68,0.26
				c-0.58,0-1.11-0.08-1.57-0.24c-0.46-0.16-0.86-0.38-1.19-0.68c-0.33-0.29-0.59-0.65-0.77-1.07c-0.18-0.42-0.28-0.89-0.29-1.42
				H672.52z"/>
		</g>
		<g>
			<path class="st5" d="M635.67,87.28h5.67c0.01,0.12,0.02,0.24,0.03,0.34c0.01,0.11,0.01,0.21,0.01,0.31
				c0,0.63-0.08,1.21-0.23,1.74c-0.15,0.53-0.33,0.95-0.52,1.25c-0.6,0.95-1.31,1.64-2.12,2.09c-0.81,0.45-1.76,0.67-2.85,0.67
				c-0.82,0-1.58-0.14-2.26-0.42c-0.69-0.28-1.3-0.68-1.84-1.2c-0.53-0.52-0.94-1.13-1.21-1.82c-0.27-0.69-0.41-1.44-0.41-2.25
				c0-0.81,0.14-1.56,0.41-2.25c0.27-0.69,0.68-1.3,1.21-1.83c0.54-0.53,1.15-0.94,1.84-1.2c0.69-0.27,1.44-0.4,2.26-0.4
				c1.79,0,3.25,0.65,4.4,1.93l-2.02,1.76c-0.28-0.41-0.62-0.72-1.02-0.93c-0.4-0.21-0.85-0.32-1.36-0.32
				c-0.43,0-0.82,0.08-1.18,0.24c-0.36,0.16-0.67,0.38-0.92,0.67c-0.26,0.29-0.46,0.63-0.61,1.02c-0.15,0.4-0.22,0.83-0.22,1.31
				c0,0.48,0.07,0.91,0.22,1.31c0.15,0.4,0.35,0.74,0.61,1.02c0.26,0.29,0.57,0.51,0.92,0.67c0.36,0.16,0.75,0.24,1.18,0.24
				c0.67,0,1.25-0.16,1.74-0.49c0.49-0.32,0.86-0.79,1.1-1.39h-2.84V87.28z"/>
			<path class="st5" d="M643.15,82.54h2.75v8.73h2.76v2.22h-5.52V82.54z"/>
			<path class="st5" d="M653.31,82.54h3.4l3.75,10.95h-2.91l-0.44-1.59h-4.21l-0.44,1.59h-2.89L653.31,82.54z M656.48,89.83
				L655,84.76l-1.47,5.07H656.48z"/>
			<path class="st5" d="M663.75,90.32c0.02,0.36,0.15,0.65,0.39,0.86c0.24,0.21,0.57,0.31,0.99,0.31c0.43,0,0.76-0.09,0.99-0.27
				c0.23-0.18,0.34-0.43,0.34-0.73c0-0.34-0.16-0.6-0.47-0.78c-0.31-0.19-0.75-0.38-1.33-0.6c-0.36-0.13-0.73-0.27-1.11-0.41
				c-0.38-0.14-0.75-0.35-1.13-0.62c-0.36-0.28-0.64-0.62-0.84-1.03s-0.29-0.88-0.29-1.39c0-0.49,0.09-0.93,0.26-1.34
				c0.17-0.41,0.42-0.76,0.75-1.05c0.33-0.29,0.72-0.52,1.18-0.69c0.46-0.17,0.97-0.25,1.53-0.25c1.23,0,2.18,0.29,2.83,0.86
				c0.65,0.57,0.99,1.41,1,2.51h-2.51c-0.01-0.41-0.12-0.73-0.34-0.95c-0.22-0.22-0.53-0.34-0.93-0.34c-0.39,0-0.7,0.1-0.92,0.29
				c-0.22,0.19-0.33,0.44-0.33,0.75c0,0.19,0.05,0.35,0.14,0.48c0.1,0.13,0.23,0.24,0.41,0.34c0.18,0.1,0.4,0.2,0.67,0.29
				c0.27,0.1,0.57,0.21,0.92,0.33c0.44,0.16,0.86,0.33,1.27,0.5c0.41,0.17,0.78,0.44,1.11,0.8c0.49,0.54,0.73,1.2,0.73,2.01
				c0,0.52-0.09,1-0.28,1.43c-0.19,0.43-0.45,0.8-0.8,1.11c-0.35,0.31-0.77,0.55-1.28,0.72c-0.5,0.17-1.06,0.26-1.68,0.26
				c-0.58,0-1.1-0.08-1.57-0.23c-0.46-0.16-0.86-0.38-1.19-0.68c-0.33-0.29-0.59-0.65-0.77-1.07c-0.18-0.42-0.28-0.89-0.29-1.42
				H663.75z"/>
			<path class="st5" d="M673.01,90.32c0.02,0.36,0.15,0.65,0.39,0.86c0.24,0.21,0.57,0.31,0.99,0.31c0.43,0,0.76-0.09,0.99-0.27
				c0.23-0.18,0.34-0.43,0.34-0.73c0-0.34-0.16-0.6-0.46-0.78c-0.31-0.19-0.75-0.38-1.33-0.6c-0.36-0.13-0.73-0.27-1.11-0.41
				c-0.38-0.14-0.75-0.35-1.13-0.62c-0.36-0.28-0.64-0.62-0.84-1.03c-0.19-0.41-0.29-0.88-0.29-1.39c0-0.49,0.09-0.93,0.26-1.34
				c0.17-0.41,0.42-0.76,0.75-1.05c0.32-0.29,0.72-0.52,1.18-0.69c0.46-0.17,0.97-0.25,1.54-0.25c1.23,0,2.18,0.29,2.83,0.86
				c0.65,0.57,0.99,1.41,1,2.51h-2.51c-0.01-0.41-0.12-0.73-0.34-0.95c-0.22-0.22-0.53-0.34-0.93-0.34c-0.39,0-0.7,0.1-0.92,0.29
				c-0.22,0.19-0.33,0.44-0.33,0.75c0,0.19,0.05,0.35,0.14,0.48c0.1,0.13,0.23,0.24,0.41,0.34c0.18,0.1,0.4,0.2,0.67,0.29
				c0.27,0.1,0.57,0.21,0.92,0.33c0.44,0.16,0.86,0.33,1.27,0.5c0.41,0.17,0.77,0.44,1.11,0.8c0.49,0.54,0.73,1.2,0.73,2.01
				c0,0.52-0.09,1-0.28,1.43c-0.19,0.43-0.45,0.8-0.8,1.11c-0.35,0.31-0.77,0.55-1.28,0.72c-0.5,0.17-1.06,0.26-1.68,0.26
				c-0.58,0-1.1-0.08-1.57-0.23c-0.46-0.16-0.86-0.38-1.19-0.68c-0.33-0.29-0.58-0.65-0.77-1.07c-0.18-0.42-0.28-0.89-0.29-1.42
				H673.01z"/>
		</g>
		<g class="st6">
			<path class="st0" d="M635.69,87.32h5.67c0.01,0.12,0.02,0.24,0.03,0.34c0.01,0.1,0.01,0.21,0.01,0.31c0,0.63-0.08,1.21-0.23,1.74
				c-0.15,0.53-0.33,0.95-0.52,1.25c-0.6,0.94-1.31,1.64-2.12,2.09c-0.81,0.45-1.76,0.67-2.85,0.67c-0.82,0-1.58-0.14-2.26-0.41
				c-0.69-0.28-1.3-0.68-1.83-1.21c-0.54-0.52-0.94-1.13-1.21-1.82c-0.27-0.69-0.41-1.44-0.41-2.25c0-0.81,0.14-1.56,0.41-2.25
				c0.27-0.69,0.68-1.3,1.21-1.83c0.53-0.54,1.15-0.94,1.83-1.2c0.69-0.27,1.44-0.4,2.26-0.4c1.79,0,3.25,0.64,4.4,1.93l-2.02,1.76
				c-0.28-0.41-0.62-0.72-1.02-0.93c-0.4-0.21-0.86-0.31-1.36-0.31c-0.43,0-0.82,0.08-1.18,0.24c-0.36,0.16-0.67,0.38-0.92,0.67
				c-0.26,0.29-0.46,0.63-0.61,1.02c-0.15,0.4-0.22,0.83-0.22,1.31c0,0.48,0.07,0.92,0.22,1.31c0.15,0.4,0.35,0.74,0.61,1.03
				c0.26,0.29,0.57,0.51,0.92,0.67c0.36,0.16,0.75,0.24,1.18,0.24c0.67,0,1.25-0.16,1.74-0.49c0.49-0.33,0.86-0.79,1.1-1.39h-2.84
				V87.32z"/>
			<path class="st0" d="M643.17,82.58h2.75v8.73h2.76v2.22h-5.52V82.58z"/>
			<path class="st0" d="M653.32,82.58h3.4l3.75,10.95h-2.91l-0.45-1.59h-4.21l-0.44,1.59h-2.9L653.32,82.58z M656.49,89.87
				l-1.47-5.07l-1.48,5.07H656.49z"/>
			<path class="st0" d="M663.77,90.36c0.02,0.36,0.15,0.65,0.39,0.86c0.24,0.21,0.57,0.32,0.99,0.32c0.43,0,0.76-0.09,0.99-0.27
				c0.23-0.18,0.34-0.43,0.34-0.73c0-0.34-0.16-0.6-0.47-0.78c-0.31-0.19-0.75-0.38-1.32-0.6c-0.36-0.13-0.73-0.27-1.11-0.41
				c-0.38-0.14-0.75-0.35-1.13-0.62c-0.36-0.28-0.64-0.62-0.84-1.03c-0.2-0.41-0.29-0.88-0.29-1.39c0-0.49,0.08-0.94,0.26-1.34
				c0.17-0.41,0.42-0.76,0.75-1.05c0.33-0.29,0.72-0.52,1.18-0.69c0.46-0.17,0.97-0.25,1.54-0.25c1.23,0,2.18,0.29,2.83,0.86
				c0.65,0.57,0.98,1.41,1,2.51h-2.51c-0.01-0.41-0.12-0.73-0.34-0.95c-0.22-0.23-0.53-0.34-0.93-0.34c-0.39,0-0.7,0.1-0.92,0.29
				c-0.22,0.19-0.33,0.44-0.33,0.75c0,0.19,0.05,0.35,0.14,0.48c0.1,0.13,0.23,0.24,0.41,0.34c0.18,0.1,0.4,0.2,0.67,0.29
				c0.27,0.1,0.57,0.21,0.92,0.33c0.44,0.16,0.86,0.33,1.27,0.5c0.41,0.17,0.78,0.44,1.11,0.8c0.49,0.54,0.73,1.2,0.73,2.01
				c0,0.52-0.09,1-0.28,1.43c-0.19,0.43-0.45,0.8-0.8,1.11c-0.35,0.31-0.77,0.55-1.27,0.72c-0.5,0.17-1.06,0.26-1.68,0.26
				c-0.58,0-1.11-0.08-1.57-0.23c-0.46-0.16-0.86-0.38-1.19-0.68c-0.33-0.29-0.58-0.65-0.77-1.07c-0.18-0.42-0.28-0.89-0.29-1.42
				H663.77z"/>
			<path class="st0" d="M673.05,90.32c0.02,0.36,0.15,0.65,0.39,0.86c0.24,0.21,0.57,0.32,0.99,0.32c0.43,0,0.76-0.09,0.99-0.27
				c0.23-0.18,0.34-0.43,0.34-0.73c0-0.34-0.16-0.6-0.47-0.78c-0.31-0.19-0.75-0.38-1.33-0.6c-0.36-0.13-0.73-0.27-1.11-0.41
				c-0.38-0.14-0.75-0.35-1.12-0.62c-0.36-0.28-0.64-0.62-0.84-1.03c-0.2-0.41-0.29-0.88-0.29-1.39c0-0.49,0.08-0.94,0.26-1.34
				c0.17-0.41,0.42-0.76,0.75-1.05c0.32-0.29,0.72-0.52,1.18-0.69c0.46-0.17,0.97-0.25,1.54-0.25c1.23,0,2.18,0.29,2.83,0.86
				c0.65,0.57,0.99,1.41,1.01,2.51h-2.51c-0.01-0.41-0.13-0.73-0.34-0.95c-0.22-0.23-0.53-0.34-0.93-0.34c-0.39,0-0.7,0.1-0.92,0.29
				c-0.22,0.19-0.33,0.44-0.33,0.75c0,0.19,0.05,0.35,0.14,0.48c0.1,0.13,0.23,0.24,0.41,0.34c0.18,0.1,0.4,0.2,0.67,0.29
				c0.27,0.1,0.57,0.21,0.92,0.33c0.44,0.16,0.86,0.33,1.27,0.5c0.41,0.17,0.78,0.44,1.11,0.8c0.49,0.54,0.73,1.2,0.73,2.01
				c0,0.52-0.09,1-0.28,1.43c-0.19,0.43-0.45,0.8-0.8,1.11c-0.35,0.31-0.77,0.55-1.28,0.72c-0.5,0.17-1.06,0.26-1.68,0.26
				c-0.58,0-1.11-0.08-1.57-0.23c-0.46-0.16-0.86-0.38-1.19-0.68c-0.33-0.29-0.58-0.65-0.77-1.07c-0.18-0.42-0.28-0.89-0.29-1.42
				H673.05z"/>
		</g>
	</g>
	<g>
		<g class="st7">
			<defs>
				<filter id="Adobe_OpacityMaskFilter" filterUnits="userSpaceOnUse" x="629.36" y="81" width="12.98" height="13.29">
					<feColorMatrix  type="matrix" values="1 0 0 0 0  0 1 0 0 0  0 0 1 0 0  0 0 0 1 0"/>
				</filter>
			</defs>
			<mask maskUnits="userSpaceOnUse" x="629.36" y="81" width="12.98" height="13.29" id="SVGID_3_">
				<g class="st8">
					
						<radialGradient id="SVGID_4_" cx="910.3265" cy="-571.7635" r="6.4528" gradientTransform="matrix(-0.1467 1.019 -0.9953 -0.148 200.3182 -924.5942)" gradientUnits="userSpaceOnUse">
						<stop  offset="5.617980e-03" style="stop-color:#FFFFFF"/>
						<stop  offset="1" style="stop-color:#13120E"/>
					</radialGradient>
					<path class="st9" d="M634.9,94.23c-3.55-0.53-6-3.9-5.47-7.53c0.52-3.63,3.82-6.15,7.37-5.62c3.55,0.53,6,3.9,5.47,7.53
						C641.75,92.24,638.45,94.75,634.9,94.23z"/>
				</g>
			</mask>
			<path class="st10" d="M634.9,94.23c-3.55-0.53-6-3.9-5.47-7.53c0.52-3.63,3.82-6.15,7.37-5.62c3.55,0.53,6,3.9,5.47,7.53
				C641.75,92.24,638.45,94.75,634.9,94.23z"/>
			<defs>
				<filter id="Adobe_OpacityMaskFilter_1_" filterUnits="userSpaceOnUse" x="631.61" y="83.31" width="8.48" height="8.68">
					<feColorMatrix  type="matrix" values="1 0 0 0 0  0 1 0 0 0  0 0 1 0 0  0 0 0 1 0"/>
				</filter>
			</defs>
			<mask maskUnits="userSpaceOnUse" x="631.61" y="83.31" width="8.48" height="8.68" id="SVGID_5_">
				<g class="st11">
					
						<radialGradient id="SVGID_6_" cx="910.3269" cy="-571.7597" r="4.2136" gradientTransform="matrix(-0.1467 1.019 -0.9953 -0.148 200.3182 -924.5942)" gradientUnits="userSpaceOnUse">
						<stop  offset="5.617980e-03" style="stop-color:#FFFFFF"/>
						<stop  offset="1" style="stop-color:#13120E"/>
					</radialGradient>
					<path class="st12" d="M635.23,91.94c-2.31-0.34-3.91-2.55-3.58-4.92c0.34-2.37,2.5-4.01,4.81-3.67
						c2.32,0.34,3.92,2.55,3.58,4.92C639.7,90.64,637.55,92.29,635.23,91.94z"/>
				</g>
			</mask>
			<path class="st13" d="M635.23,91.94c-2.31-0.34-3.91-2.55-3.58-4.92c0.34-2.37,2.5-4.01,4.81-3.67c2.32,0.34,3.92,2.55,3.58,4.92
				C639.7,90.64,637.55,92.29,635.23,91.94z"/>
			<defs>
				<filter id="Adobe_OpacityMaskFilter_2_" filterUnits="userSpaceOnUse" x="633.12" y="84.85" width="5.47" height="5.59">
					<feColorMatrix  type="matrix" values="1 0 0 0 0  0 1 0 0 0  0 0 1 0 0  0 0 0 1 0"/>
				</filter>
			</defs>
			<mask maskUnits="userSpaceOnUse" x="633.12" y="84.85" width="5.47" height="5.59" id="SVGID_7_">
				<g class="st14">
					
						<radialGradient id="SVGID_8_" cx="910.3259" cy="-571.7639" r="2.7155" gradientTransform="matrix(-0.1467 1.019 -0.9953 -0.148 200.3182 -924.5942)" gradientUnits="userSpaceOnUse">
						<stop  offset="5.617980e-03" style="stop-color:#FFFFFF"/>
						<stop  offset="1" style="stop-color:#13120E"/>
					</radialGradient>
					<path class="st15" d="M635.45,90.42c-1.49-0.22-2.52-1.64-2.3-3.17c0.22-1.53,1.61-2.59,3.1-2.37
						c1.49,0.22,2.52,1.64,2.31,3.17C638.33,89.58,636.94,90.64,635.45,90.42z"/>
				</g>
			</mask>
			<path class="st16" d="M635.45,90.42c-1.49-0.22-2.52-1.64-2.3-3.17c0.22-1.53,1.61-2.59,3.1-2.37c1.49,0.22,2.52,1.64,2.31,3.17
				C638.33,89.58,636.94,90.64,635.45,90.42z"/>
		</g>
		<g>
			<g class="st7">
				<defs>
					<filter id="Adobe_OpacityMaskFilter_3_" filterUnits="userSpaceOnUse" x="623.42" y="85.52" width="24.79" height="3.84">
						<feColorMatrix  type="matrix" values="1 0 0 0 0  0 1 0 0 0  0 0 1 0 0  0 0 0 1 0"/>
					</filter>
				</defs>
				<mask maskUnits="userSpaceOnUse" x="623.42" y="85.52" width="24.79" height="3.84" id="SVGID_9_">
					<g class="st17">
						
							<radialGradient id="SVGID_10_" cx="-3407.9553" cy="-513.506" r="5.2632" gradientTransform="matrix(-0.0145 0.0991 -2.3633 -0.3516 -627.1685 244.6241)" gradientUnits="userSpaceOnUse">
							<stop  offset="5.617980e-03" style="stop-color:#FFFFFF"/>
							<stop  offset="1" style="stop-color:#13120E"/>
						</radialGradient>
						<path class="st18" d="M635.74,87.97c-6.85-1.02-12.36-2.08-12.32-2.37c0.04-0.29,5.62,0.31,12.47,1.32
							c6.85,1.02,12.36,2.08,12.32,2.37C648.17,89.58,642.59,88.98,635.74,87.97z"/>
					</g>
				</mask>
				<path class="st19" d="M635.74,87.97c-6.85-1.02-12.36-2.08-12.32-2.37c0.04-0.29,5.62,0.31,12.47,1.32
					c6.85,1.02,12.36,2.08,12.32,2.37C648.17,89.58,642.59,88.98,635.74,87.97z"/>
				<defs>
					<filter id="Adobe_OpacityMaskFilter_4_" filterUnits="userSpaceOnUse" x="627.72" y="86.19" width="16.19" height="2.5">
						<feColorMatrix  type="matrix" values="1 0 0 0 0  0 1 0 0 0  0 0 1 0 0  0 0 0 1 0"/>
					</filter>
				</defs>
				<mask maskUnits="userSpaceOnUse" x="627.72" y="86.19" width="16.19" height="2.5" id="SVGID_11_">
					<g class="st20">
						
							<radialGradient id="SVGID_12_" cx="-3407.9795" cy="-513.506" r="3.4296" gradientTransform="matrix(-0.0145 0.0991 -2.3633 -0.3516 -627.1685 244.6241)" gradientUnits="userSpaceOnUse">
							<stop  offset="5.617980e-03" style="stop-color:#FFFFFF"/>
							<stop  offset="1" style="stop-color:#13120E"/>
						</radialGradient>
						<path class="st21" d="M635.77,87.78c-4.47-0.67-8.07-1.36-8.05-1.54c0.03-0.19,3.67,0.2,8.15,0.86
							c4.47,0.67,8.06,1.36,8.04,1.55C643.88,88.83,640.24,88.45,635.77,87.78z"/>
					</g>
				</mask>
				<path class="st22" d="M635.77,87.78c-4.47-0.67-8.07-1.36-8.05-1.54c0.03-0.19,3.67,0.2,8.15,0.86
					c4.47,0.67,8.06,1.36,8.04,1.55C643.88,88.83,640.24,88.45,635.77,87.78z"/>
				<defs>
					<filter id="Adobe_OpacityMaskFilter_5_" filterUnits="userSpaceOnUse" x="630.6" y="86.64" width="10.43" height="1.61">
						<feColorMatrix  type="matrix" values="1 0 0 0 0  0 1 0 0 0  0 0 1 0 0  0 0 0 1 0"/>
					</filter>
				</defs>
				<mask maskUnits="userSpaceOnUse" x="630.6" y="86.64" width="10.43" height="1.61" id="SVGID_13_">
					<g class="st23">
						
							<radialGradient id="SVGID_14_" cx="-3407.9414" cy="-513.5048" r="2.2035" gradientTransform="matrix(-0.0145 0.0991 -2.3633 -0.3516 -627.1685 244.6241)" gradientUnits="userSpaceOnUse">
							<stop  offset="5.617980e-03" style="stop-color:#FFFFFF"/>
							<stop  offset="1" style="stop-color:#13120E"/>
						</radialGradient>
						<path class="st24" d="M635.78,87.66c-2.88-0.43-5.21-0.88-5.18-1c0.02-0.12,2.37,0.13,5.24,0.56c2.89,0.42,5.2,0.87,5.18,0.99
							C641.01,88.34,638.66,88.09,635.78,87.66z"/>
					</g>
				</mask>
				<path class="st25" d="M635.78,87.66c-2.88-0.43-5.21-0.88-5.18-1c0.02-0.12,2.37,0.13,5.24,0.56c2.89,0.42,5.2,0.87,5.18,0.99
					C641.01,88.34,638.66,88.09,635.78,87.66z"/>
			</g>
			<g class="st7">
				<defs>
					<filter id="Adobe_OpacityMaskFilter_6_" filterUnits="userSpaceOnUse" x="633.83" y="74.71" width="3.76" height="25.2">
						<feColorMatrix  type="matrix" values="1 0 0 0 0  0 1 0 0 0  0 0 1 0 0  0 0 0 1 0"/>
					</filter>
				</defs>
				<mask maskUnits="userSpaceOnUse" x="633.83" y="74.71" width="3.76" height="25.2" id="SVGID_15_">
					<g class="st26">
						
							<radialGradient id="SVGID_16_" cx="2049.5454" cy="-711.0984" r="5.2568" gradientTransform="matrix(0.0936 0.014 -0.3459 2.4025 197.9026 1767.0319)" gradientUnits="userSpaceOnUse">
							<stop  offset="5.617980e-03" style="stop-color:#FFFFFF"/>
							<stop  offset="1" style="stop-color:#13120E"/>
						</radialGradient>
						<path class="st27" d="M636.2,87.38c-1,6.97-2.04,12.57-2.31,12.53c-0.27-0.04,0.32-5.71,1.32-12.67
							c1-6.96,2.03-12.57,2.31-12.53C637.79,74.75,637.2,80.42,636.2,87.38z"/>
					</g>
				</mask>
				<path class="st28" d="M636.2,87.38c-1,6.97-2.04,12.57-2.31,12.53c-0.27-0.04,0.32-5.71,1.32-12.67
					c1-6.96,2.03-12.57,2.31-12.53C637.79,74.75,637.2,80.42,636.2,87.38z"/>
				<defs>
					<filter id="Adobe_OpacityMaskFilter_7_" filterUnits="userSpaceOnUse" x="634.48" y="79.08" width="2.46" height="16.46">
						<feColorMatrix  type="matrix" values="1 0 0 0 0  0 1 0 0 0  0 0 1 0 0  0 0 0 1 0"/>
					</filter>
				</defs>
				<mask maskUnits="userSpaceOnUse" x="634.48" y="79.08" width="2.46" height="16.46" id="SVGID_17_">
					<g class="st29">
						
							<radialGradient id="SVGID_18_" cx="2049.5454" cy="-711.1004" r="3.4162" gradientTransform="matrix(0.0936 0.014 -0.3459 2.4025 197.9026 1767.0319)" gradientUnits="userSpaceOnUse">
							<stop  offset="5.617980e-03" style="stop-color:#FFFFFF"/>
							<stop  offset="1" style="stop-color:#13120E"/>
						</radialGradient>
						<path class="st30" d="M636.03,87.36c-0.65,4.54-1.33,8.2-1.5,8.18c-0.18-0.02,0.21-3.73,0.87-8.27
							c0.65-4.54,1.32-8.2,1.5-8.18C637.07,79.11,636.68,82.81,636.03,87.36z"/>
					</g>
				</mask>
				<path class="st31" d="M636.03,87.36c-0.65,4.54-1.33,8.2-1.5,8.18c-0.18-0.02,0.21-3.73,0.87-8.27c0.65-4.54,1.32-8.2,1.5-8.18
					C637.07,79.11,636.68,82.81,636.03,87.36z"/>
				<defs>
					<filter id="Adobe_OpacityMaskFilter_8_" filterUnits="userSpaceOnUse" x="634.92" y="82.01" width="1.58" height="10.6">
						<feColorMatrix  type="matrix" values="1 0 0 0 0  0 1 0 0 0  0 0 1 0 0  0 0 0 1 0"/>
					</filter>
				</defs>
				<mask maskUnits="userSpaceOnUse" x="634.92" y="82.01" width="1.58" height="10.6" id="SVGID_19_">
					<g class="st32">
						
							<radialGradient id="SVGID_20_" cx="2049.5349" cy="-711.0983" r="2.2087" gradientTransform="matrix(0.0936 0.014 -0.3459 2.4025 197.9026 1767.0319)" gradientUnits="userSpaceOnUse">
							<stop  offset="5.617980e-03" style="stop-color:#FFFFFF"/>
							<stop  offset="1" style="stop-color:#13120E"/>
						</radialGradient>
						<path class="st33" d="M635.92,87.34c-0.42,2.93-0.86,5.29-0.97,5.27c-0.12-0.02,0.14-2.4,0.56-5.33
							c0.42-2.93,0.86-5.29,0.97-5.27C636.58,82.03,636.33,84.41,635.92,87.34z"/>
					</g>
				</mask>
				<path class="st34" d="M635.92,87.34c-0.42,2.93-0.86,5.29-0.97,5.27c-0.12-0.02,0.14-2.4,0.56-5.33
					c0.42-2.93,0.86-5.29,0.97-5.27C636.58,82.03,636.33,84.41,635.92,87.34z"/>
			</g>
		</g>
	</g>
	<g>
		<defs>
			<filter id="Adobe_OpacityMaskFilter_9_" filterUnits="userSpaceOnUse" x="666.46" y="83.92" width="12.98" height="13.29">
				<feColorMatrix  type="matrix" values="1 0 0 0 0  0 1 0 0 0  0 0 1 0 0  0 0 0 1 0"/>
			</filter>
		</defs>
		<mask maskUnits="userSpaceOnUse" x="666.46" y="83.92" width="12.98" height="13.29" id="SVGID_21_">
			<g class="st35">
				
					<radialGradient id="SVGID_22_" cx="907.8267" cy="-608.671" r="6.4529" gradientTransform="matrix(-0.1467 1.019 -0.9953 -0.148 200.3182 -924.5942)" gradientUnits="userSpaceOnUse">
					<stop  offset="5.617980e-03" style="stop-color:#FFFFFF"/>
					<stop  offset="1" style="stop-color:#13120E"/>
				</radialGradient>
				<path class="st36" d="M672,97.14c-3.55-0.53-6-3.9-5.47-7.53c0.52-3.63,3.82-6.15,7.37-5.62c3.55,0.53,6,3.9,5.47,7.53
					C678.85,95.15,675.55,97.66,672,97.14z"/>
			</g>
		</mask>
		<path class="st37" d="M672,97.14c-3.55-0.53-6-3.9-5.47-7.53c0.52-3.63,3.82-6.15,7.37-5.62c3.55,0.53,6,3.9,5.47,7.53
			C678.85,95.15,675.55,97.66,672,97.14z"/>
		<defs>
			<filter id="Adobe_OpacityMaskFilter_10_" filterUnits="userSpaceOnUse" x="668.71" y="86.23" width="8.48" height="8.68">
				<feColorMatrix  type="matrix" values="1 0 0 0 0  0 1 0 0 0  0 0 1 0 0  0 0 0 1 0"/>
			</filter>
		</defs>
		<mask maskUnits="userSpaceOnUse" x="668.71" y="86.23" width="8.48" height="8.68" id="SVGID_23_">
			<g class="st38">
				
					<radialGradient id="SVGID_24_" cx="907.8271" cy="-608.6681" r="4.2128" gradientTransform="matrix(-0.1467 1.019 -0.9953 -0.148 200.3182 -924.5942)" gradientUnits="userSpaceOnUse">
					<stop  offset="5.617980e-03" style="stop-color:#FFFFFF"/>
					<stop  offset="1" style="stop-color:#13120E"/>
				</radialGradient>
				<path class="st39" d="M672.33,94.86c-2.31-0.34-3.91-2.55-3.58-4.92c0.34-2.37,2.5-4.01,4.81-3.67
					c2.32,0.34,3.92,2.54,3.58,4.92C676.81,93.56,674.65,95.21,672.33,94.86z"/>
			</g>
		</mask>
		<path class="st40" d="M672.33,94.86c-2.31-0.34-3.91-2.55-3.58-4.92c0.34-2.37,2.5-4.01,4.81-3.67c2.32,0.34,3.92,2.54,3.58,4.92
			C676.81,93.56,674.65,95.21,672.33,94.86z"/>
		<defs>
			<filter id="Adobe_OpacityMaskFilter_11_" filterUnits="userSpaceOnUse" x="670.22" y="87.77" width="5.46" height="5.59">
				<feColorMatrix  type="matrix" values="1 0 0 0 0  0 1 0 0 0  0 0 1 0 0  0 0 0 1 0"/>
			</filter>
		</defs>
		<mask maskUnits="userSpaceOnUse" x="670.22" y="87.77" width="5.46" height="5.59" id="SVGID_25_">
			<g class="st41">
				
					<radialGradient id="SVGID_26_" cx="907.8268" cy="-608.6714" r="2.715" gradientTransform="matrix(-0.1467 1.019 -0.9953 -0.148 200.3182 -924.5942)" gradientUnits="userSpaceOnUse">
					<stop  offset="5.617980e-03" style="stop-color:#FFFFFF"/>
					<stop  offset="1" style="stop-color:#13120E"/>
				</radialGradient>
				<path class="st42" d="M672.55,93.33c-1.49-0.22-2.52-1.64-2.31-3.17c0.22-1.53,1.61-2.59,3.1-2.36c1.49,0.22,2.52,1.64,2.3,3.17
					C675.44,92.5,674.05,93.55,672.55,93.33z"/>
			</g>
		</mask>
		<path class="st43" d="M672.55,93.33c-1.49-0.22-2.52-1.64-2.31-3.17c0.22-1.53,1.61-2.59,3.1-2.36c1.49,0.22,2.52,1.64,2.3,3.17
			C675.44,92.5,674.05,93.55,672.55,93.33z"/>
		<g class="st7">
			<defs>
				<filter id="Adobe_OpacityMaskFilter_12_" filterUnits="userSpaceOnUse" x="660.52" y="88.44" width="24.79" height="3.84">
					<feColorMatrix  type="matrix" values="1 0 0 0 0  0 1 0 0 0  0 0 1 0 0  0 0 0 1 0"/>
				</filter>
			</defs>
			<mask maskUnits="userSpaceOnUse" x="660.52" y="88.44" width="24.79" height="3.84" id="SVGID_27_">
				<g class="st44">
					
						<radialGradient id="SVGID_28_" cx="-3433.6772" cy="-529.0472" r="5.2622" gradientTransform="matrix(-0.0145 0.0991 -2.3633 -0.3516 -627.1685 244.6241)" gradientUnits="userSpaceOnUse">
						<stop  offset="5.617980e-03" style="stop-color:#FFFFFF"/>
						<stop  offset="1" style="stop-color:#13120E"/>
					</radialGradient>
					<path class="st45" d="M672.84,90.88c-6.85-1.02-12.36-2.08-12.32-2.37c0.04-0.29,5.62,0.3,12.47,1.32
						c6.85,1.02,12.36,2.08,12.32,2.37C685.27,92.49,679.69,91.9,672.84,90.88z"/>
				</g>
			</mask>
			<path class="st46" d="M672.84,90.88c-6.85-1.02-12.36-2.08-12.32-2.37c0.04-0.29,5.62,0.3,12.47,1.32
				c6.85,1.02,12.36,2.08,12.32,2.37C685.27,92.49,679.69,91.9,672.84,90.88z"/>
			<defs>
				<filter id="Adobe_OpacityMaskFilter_13_" filterUnits="userSpaceOnUse" x="664.82" y="89.11" width="16.19" height="2.5">
					<feColorMatrix  type="matrix" values="1 0 0 0 0  0 1 0 0 0  0 0 1 0 0  0 0 0 1 0"/>
				</filter>
			</defs>
			<mask maskUnits="userSpaceOnUse" x="664.82" y="89.11" width="16.19" height="2.5" id="SVGID_29_">
				<g class="st47">
					
						<radialGradient id="SVGID_30_" cx="-3433.7036" cy="-529.0472" r="3.43" gradientTransform="matrix(-0.0145 0.0991 -2.3633 -0.3516 -627.1685 244.6241)" gradientUnits="userSpaceOnUse">
						<stop  offset="5.617980e-03" style="stop-color:#FFFFFF"/>
						<stop  offset="1" style="stop-color:#13120E"/>
					</radialGradient>
					<path class="st48" d="M672.87,90.7c-4.48-0.67-8.07-1.36-8.05-1.54c0.03-0.19,3.67,0.2,8.14,0.86
						c4.47,0.67,8.07,1.36,8.04,1.55C680.98,91.75,677.34,91.36,672.87,90.7z"/>
				</g>
			</mask>
			<path class="st49" d="M672.87,90.7c-4.48-0.67-8.07-1.36-8.05-1.54c0.03-0.19,3.67,0.2,8.14,0.86c4.47,0.67,8.07,1.36,8.04,1.55
				C680.98,91.75,677.34,91.36,672.87,90.7z"/>
			<defs>
				<filter id="Adobe_OpacityMaskFilter_14_" filterUnits="userSpaceOnUse" x="667.7" y="89.55" width="10.43" height="1.61">
					<feColorMatrix  type="matrix" values="1 0 0 0 0  0 1 0 0 0  0 0 1 0 0  0 0 0 1 0"/>
				</filter>
			</defs>
			<mask maskUnits="userSpaceOnUse" x="667.7" y="89.55" width="10.43" height="1.61" id="SVGID_31_">
				<g class="st50">
					
						<radialGradient id="SVGID_32_" cx="-3433.6675" cy="-529.0464" r="2.2013" gradientTransform="matrix(-0.0145 0.0991 -2.3633 -0.3516 -627.1685 244.6241)" gradientUnits="userSpaceOnUse">
						<stop  offset="5.617980e-03" style="stop-color:#FFFFFF"/>
						<stop  offset="1" style="stop-color:#13120E"/>
					</radialGradient>
					<path class="st51" d="M672.88,90.58c-2.88-0.43-5.2-0.88-5.18-1c0.02-0.12,2.36,0.13,5.24,0.56c2.89,0.43,5.2,0.87,5.19,0.99
						C678.11,91.25,675.76,91,672.88,90.58z"/>
				</g>
			</mask>
			<path class="st52" d="M672.88,90.58c-2.88-0.43-5.2-0.88-5.18-1c0.02-0.12,2.36,0.13,5.24,0.56c2.89,0.43,5.2,0.87,5.19,0.99
				C678.11,91.25,675.76,91,672.88,90.58z"/>
		</g>
		<g class="st7">
			<defs>
				<filter id="Adobe_OpacityMaskFilter_15_" filterUnits="userSpaceOnUse" x="670.93" y="77.63" width="3.76" height="25.2">
					<feColorMatrix  type="matrix" values="1 0 0 0 0  0 1 0 0 0  0 0 1 0 0  0 0 0 1 0"/>
				</filter>
			</defs>
			<mask maskUnits="userSpaceOnUse" x="670.93" y="77.63" width="3.76" height="25.2" id="SVGID_33_">
				<g class="st53">
					
						<radialGradient id="SVGID_34_" cx="2441.9648" cy="-712.1718" r="5.2548" gradientTransform="matrix(0.0936 0.014 -0.3459 2.4025 197.9026 1767.0319)" gradientUnits="userSpaceOnUse">
						<stop  offset="5.617980e-03" style="stop-color:#FFFFFF"/>
						<stop  offset="1" style="stop-color:#13120E"/>
					</radialGradient>
					<path class="st54" d="M673.3,90.3c-1,6.97-2.04,12.57-2.31,12.53c-0.27-0.04,0.32-5.71,1.32-12.67
						c1-6.96,2.03-12.57,2.31-12.52C674.9,77.67,674.3,83.33,673.3,90.3z"/>
				</g>
			</mask>
			<path class="st55" d="M673.3,90.3c-1,6.97-2.04,12.57-2.31,12.53c-0.27-0.04,0.32-5.71,1.32-12.67c1-6.96,2.03-12.57,2.31-12.52
				C674.9,77.67,674.3,83.33,673.3,90.3z"/>
			<defs>
				<filter id="Adobe_OpacityMaskFilter_16_" filterUnits="userSpaceOnUse" x="671.58" y="81.99" width="2.46" height="16.46">
					<feColorMatrix  type="matrix" values="1 0 0 0 0  0 1 0 0 0  0 0 1 0 0  0 0 0 1 0"/>
				</filter>
			</defs>
			<mask maskUnits="userSpaceOnUse" x="671.58" y="81.99" width="2.46" height="16.46" id="SVGID_35_">
				<g class="st56">
					
						<radialGradient id="SVGID_36_" cx="2441.9697" cy="-712.1741" r="3.4113" gradientTransform="matrix(0.0936 0.014 -0.3459 2.4025 197.9026 1767.0319)" gradientUnits="userSpaceOnUse">
						<stop  offset="5.617980e-03" style="stop-color:#FFFFFF"/>
						<stop  offset="1" style="stop-color:#13120E"/>
					</radialGradient>
					<path class="st57" d="M673.13,90.27c-0.65,4.54-1.33,8.2-1.5,8.18c-0.18-0.02,0.21-3.73,0.87-8.27c0.65-4.54,1.32-8.2,1.5-8.18
						C674.17,82.03,673.78,85.73,673.13,90.27z"/>
				</g>
			</mask>
			<path class="st58" d="M673.13,90.27c-0.65,4.54-1.33,8.2-1.5,8.18c-0.18-0.02,0.21-3.73,0.87-8.27c0.65-4.54,1.32-8.2,1.5-8.18
				C674.17,82.03,673.78,85.73,673.13,90.27z"/>
			<defs>
				<filter id="Adobe_OpacityMaskFilter_17_" filterUnits="userSpaceOnUse" x="672.02" y="84.93" width="1.58" height="10.6">
					<feColorMatrix  type="matrix" values="1 0 0 0 0  0 1 0 0 0  0 0 1 0 0  0 0 0 1 0"/>
				</filter>
			</defs>
			<mask maskUnits="userSpaceOnUse" x="672.02" y="84.93" width="1.58" height="10.6" id="SVGID_37_">
				<g class="st59">
					
						<radialGradient id="SVGID_38_" cx="2441.9482" cy="-712.1717" r="2.2083" gradientTransform="matrix(0.0936 0.014 -0.3459 2.4025 197.9026 1767.0319)" gradientUnits="userSpaceOnUse">
						<stop  offset="5.617980e-03" style="stop-color:#FFFFFF"/>
						<stop  offset="1" style="stop-color:#13120E"/>
					</radialGradient>
					<path class="st60" d="M673.02,90.26c-0.42,2.93-0.86,5.29-0.97,5.27c-0.12-0.02,0.13-2.4,0.55-5.33
						c0.42-2.93,0.86-5.29,0.97-5.27C673.69,84.94,673.44,87.32,673.02,90.26z"/>
				</g>
			</mask>
			<path class="st61" d="M673.02,90.26c-0.42,2.93-0.86,5.29-0.97,5.27c-0.12-0.02,0.13-2.4,0.55-5.33
				c0.42-2.93,0.86-5.29,0.97-5.27C673.69,84.94,673.44,87.32,673.02,90.26z"/>
		</g>
	</g>
	<path class="st0" d="M708.57,78.22c-2.68,5.33-7.01,10.13-12.58,14.09c-9.73,6.91-23.21,11.21-38.12,11.21
		c-6.23,0-12.21-0.75-17.78-2.13c-5.97-1.48-11.47-3.69-16.27-6.46v1.29c4.77,2.7,10.19,4.85,16.05,6.3
		c5.64,1.4,11.69,2.15,17.99,2.15c15.08,0,28.74-4.34,38.68-11.39c5.87-4.17,10.45-9.31,13.2-15.06H708.57L708.57,78.22z"/>
</g>
</svg>
