<svg width="220.46" height="82.73" xmlns="http://www.w3.org/2000/svg" xmlns:xlink="http://www.w3.org/1999/xlink">
 <g>
  <title>background</title>
  <rect fill="none" id="canvas_background" height="84.73" width="222.46" y="-1" x="-1"/>
 </g>
 <g>
  <title>Layer 1</title>
  <line id="svg_1" y2="369" x2="293.89" y1="-226.28" x1="293.89" fill="none"/>
  <line id="svg_2" y2="369" x2="293.89" y1="-226.28" x1="293.89" fill="none"/>
  <line id="svg_3" y2="-226.28" x2="293.89" y1="369" x1="293.89" fill="none"/>
  <path id="svg_4" d="m207.133,13.52c-5.979,11.893 -15.642,22.594 -28.059,31.428c-21.71,15.411 -51.769,25.005 -85.027,25.005c-13.892,0 -27.24,-1.682 -39.643,-4.752c-13.325,-3.293 -25.59,-8.219 -36.291,-14.416l0,2.878c10.644,6.026 22.723,10.807 35.801,14.042c12.571,3.118 26.071,4.802 40.132,4.802c33.638,0 64.107,-9.674 86.255,-25.399c13.089,-9.293 23.298,-20.754 29.442,-33.586l-2.61,0l0,-0.002z" fill="#ABBDD2"/>
  <line id="svg_5" y2="500.334" x2="320.891" y1="-94.946" x1="320.891" fill="none"/>
  <g id="svg_6">
   <defs>
    <rect height="125.802" width="226.446" y="13.764" x="17.888" id="SVGID_1_"/>
    <radialGradient gradientUnits="userSpaceOnUse" gradientTransform="matrix(-1.8477 12.8346 12.5361 1.8641 -4852.1489 2766.8477)" r="1.1431" cy="351.7305" cx="-263.9795" id="SVGID_12_">
     <stop stop-color="#FFFFFF" offset="0"/>
     <stop stop-color="#FFFFFF" offset="0.0056"/>
     <stop stop-color="#020303" offset="1"/>
    </radialGradient>
    <radialGradient gradientUnits="userSpaceOnUse" gradientTransform="matrix(-1.2065 8.3808 8.1859 1.2172 -3069.312 1771.8317)" r="1.1409" cy="342.5566" cx="-257.0571" id="SVGID_20_">
     <stop stop-color="#FFFFFF" offset="0"/>
     <stop stop-color="#FFFFFF" offset="0.0056"/>
     <stop stop-color="#020303" offset="1"/>
    </radialGradient>
    <radialGradient gradientUnits="userSpaceOnUse" gradientTransform="matrix(-0.7776 5.4012 5.2755 0.7845 -1876.5695 1106.167)" r="1.1425" cy="327.9648" cx="-246.0576" id="SVGID_28_">
     <stop stop-color="#FFFFFF" offset="0"/>
     <stop stop-color="#FFFFFF" offset="0.0056"/>
     <stop stop-color="#020303" offset="1"/>
    </radialGradient>
    <radialGradient gradientUnits="userSpaceOnUse" gradientTransform="matrix(-0.149 1.0181 24.2787 3.6121 -8714.6904 -1151.7295)" r="1.1433" cy="360.0977" cx="-112.9419" id="SVGID_38_">
     <stop stop-color="#FFFFFF" offset="0"/>
     <stop stop-color="#FFFFFF" offset="0.0056"/>
     <stop stop-color="#020303" offset="1"/>
    </radialGradient>
    <radialGradient gradientUnits="userSpaceOnUse" gradientTransform="matrix(-0.0971 0.6634 15.8205 2.3537 -5579.2236 -785.6407)" r="1.1413" cy="355.3389" cx="-25.2124" id="SVGID_46_">
     <stop stop-color="#FFFFFF" offset="0"/>
     <stop stop-color="#FFFFFF" offset="0.0056"/>
     <stop stop-color="#020303" offset="1"/>
    </radialGradient>
    <radialGradient gradientUnits="userSpaceOnUse" gradientTransform="matrix(-0.0624 0.4262 10.1645 1.5122 -3482.5444 -540.827)" r="1.1442" cy="347.7383" cx="114.8691" id="SVGID_54_">
     <stop stop-color="#FFFFFF" offset="0"/>
     <stop stop-color="#FFFFFF" offset="0.0056"/>
     <stop stop-color="#020303" offset="1"/>
    </radialGradient>
    <radialGradient gradientUnits="userSpaceOnUse" gradientTransform="matrix(0.9604 0.1437 3.5492 -24.6515 -758.4034 9035.041)" r="1.1424" cy="362.2168" cx="-502.4277" id="SVGID_64_">
     <stop stop-color="#FFFFFF" offset="0"/>
     <stop stop-color="#FFFFFF" offset="0.0056"/>
     <stop stop-color="#020303" offset="1"/>
    </radialGradient>
    <radialGradient gradientUnits="userSpaceOnUse" gradientTransform="matrix(0.6241 0.0934 2.3065 -16.02 -392.9909 5836.0894)" r="1.1436" cy="358.5605" cx="-623.896" id="SVGID_72_">
     <stop stop-color="#FFFFFF" offset="0"/>
     <stop stop-color="#FFFFFF" offset="0.0056"/>
     <stop stop-color="#020303" offset="1"/>
    </radialGradient>
    <radialGradient gradientUnits="userSpaceOnUse" gradientTransform="matrix(0.4035 0.0604 1.4912 -10.3574 -153.268 3737.4761)" r="1.1434" cy="352.8555" cx="-813.5439" id="SVGID_80_">
     <stop stop-color="#FFFFFF" offset="0"/>
     <stop stop-color="#FFFFFF" offset="0.0056"/>
     <stop stop-color="#020303" offset="1"/>
    </radialGradient>
   </defs>
   <clipPath id="SVGID_2_">
    <use id="svg_7" xlink:href="#SVGID_1_"/>
   </clipPath>
   <path id="svg_8" d="m186.64,-3.988c-3.079,39.653 -54.547,71.201 -117.593,71.201c-6.323,0 -12.53,-0.32 -18.588,-0.929c-8.538,-0.862 -16.771,-2.311 -24.595,-4.275c9.163,2.592 18.944,4.461 29.163,5.492c6.053,0.612 12.261,0.93 18.583,0.93c63.689,0 115.565,-32.196 117.675,-72.418l-4.645,0l0,-0.001z" fill="#0F4448" clip-path="url(#SVGID_2_)"/>
   <path id="svg_9" d="m77.72,69.502c-6.228,0 -12.487,-0.313 -18.607,-0.932c-10.064,-1.016 -19.889,-2.867 -29.2,-5.501c0,0 19.206,3.729 29.246,4.743c6.107,0.615 12.352,0.929 18.562,0.929c30.713,0 59.765,-7.49 81.808,-21.092c21.928,-13.532 34.565,-31.607 35.58,-50.947l0.567,0c-0.521,9.935 -4.013,19.556 -10.393,28.545c-6.157,8.676 -14.742,16.446 -25.515,23.094c-22.113,13.644 -51.256,21.161 -82.048,21.161" fill="#0F4448" clip-path="url(#SVGID_2_)"/>
  </g>
  <path id="svg_10" d="m43.474,34.593l12.653,0c0.022,0.276 0.043,0.532 0.066,0.768c0.02,0.234 0.03,0.467 0.03,0.703c0,1.404 -0.17,2.699 -0.512,3.883c-0.339,1.182 -0.723,2.114 -1.147,2.794c-1.345,2.108 -2.921,3.663 -4.732,4.665c-1.812,1.003 -3.925,1.501 -6.358,1.501c-1.831,0 -3.514,-0.309 -5.049,-0.927c-1.533,-0.615 -2.895,-1.51 -4.088,-2.685c-1.193,-1.169 -2.093,-2.523 -2.7,-4.058c-0.609,-1.531 -0.913,-3.207 -0.913,-5.016c0,-1.81 0.304,-3.482 0.913,-5.016c0.607,-1.535 1.507,-2.898 2.7,-4.091c1.194,-1.192 2.555,-2.087 4.088,-2.685c1.535,-0.598 3.218,-0.896 5.049,-0.896c3.98,0 7.256,1.44 9.812,4.316l-4.507,3.931c-0.621,-0.917 -1.375,-1.609 -2.27,-2.077c-0.895,-0.468 -1.906,-0.703 -3.035,-0.703c-0.956,0 -1.836,0.177 -2.631,0.528c-0.802,0.352 -1.491,0.849 -2.068,1.484c-0.572,0.644 -1.027,1.403 -1.356,2.289c-0.332,0.881 -0.492,1.857 -0.492,2.921c0,1.064 0.161,2.041 0.492,2.924c0.329,0.882 0.784,1.646 1.356,2.283c0.577,0.642 1.266,1.137 2.068,1.487c0.794,0.352 1.675,0.528 2.631,0.528c1.493,0 2.783,-0.363 3.882,-1.087c1.098,-0.723 1.913,-1.756 2.445,-3.099l-6.327,0l0,-4.665z" fill="#272661"/>
  <polygon id="svg_11" points="60.154,24.018 66.29,24.018 66.29,43.476 72.456,43.476 72.456,48.43 60.154,48.43 " fill="#272661"/>
  <path id="svg_12" d="m82.807,24.018l7.573,0l8.37,24.412l-6.484,0l-0.99,-3.547l-9.394,0l-0.993,3.547l-6.452,0l8.37,-24.412zm7.063,16.26l-3.29,-11.308l-3.292,11.309l6.582,0l0,-0.001z" fill="#272661"/>
  <path id="svg_13" d="m106.103,41.366c0.046,0.809 0.329,1.45 0.863,1.917c0.531,0.468 1.265,0.704 2.204,0.704c0.961,0 1.697,-0.202 2.204,-0.609c0.51,-0.406 0.769,-0.949 0.769,-1.631c0,-0.75 -0.346,-1.328 -1.039,-1.745c-0.69,-0.416 -1.675,-0.857 -2.952,-1.329c-0.813,-0.297 -1.638,-0.601 -2.479,-0.911c-0.84,-0.309 -1.679,-0.774 -2.508,-1.393c-0.81,-0.62 -1.434,-1.387 -1.867,-2.305c-0.437,-0.917 -0.659,-1.951 -0.659,-3.105c0,-1.086 0.192,-2.084 0.576,-2.992c0.385,-0.906 0.938,-1.683 1.666,-2.335c0.727,-0.651 1.599,-1.162 2.627,-1.537c1.022,-0.372 2.165,-0.561 3.423,-0.561c2.756,0 4.857,0.64 6.308,1.918s2.2,3.145 2.244,5.593l-5.598,0c-0.017,-0.916 -0.275,-1.625 -0.767,-2.126c-0.485,-0.5 -1.18,-0.75 -2.073,-0.75c-0.876,0 -1.556,0.213 -2.048,0.637c-0.488,0.426 -0.734,0.982 -0.734,1.663c0,0.426 0.107,0.783 0.322,1.069c0.208,0.287 0.515,0.544 0.908,0.769c0.394,0.224 0.894,0.441 1.485,0.655c0.599,0.214 1.281,0.457 2.045,0.735c0.98,0.362 1.923,0.733 2.83,1.119c0.906,0.384 1.729,0.98 2.474,1.788c1.087,1.193 1.631,2.684 1.631,4.474c0,1.171 -0.204,2.237 -0.623,3.192c-0.416,0.96 -1.013,1.788 -1.789,2.479c-0.779,0.692 -1.726,1.23 -2.844,1.614c-1.119,0.384 -2.372,0.576 -3.752,0.576c-1.305,0 -2.469,-0.176 -3.505,-0.526c-1.028,-0.348 -1.914,-0.853 -2.649,-1.507c-0.733,-0.657 -1.306,-1.451 -1.71,-2.385c-0.405,-0.933 -0.615,-1.984 -0.636,-3.156l5.653,0l0,0.001z" fill="#272661"/>
  <path id="svg_14" d="m126.744,41.366c0.043,0.809 0.329,1.45 0.865,1.917c0.531,0.468 1.265,0.704 2.204,0.704c0.96,0 1.693,-0.202 2.205,-0.609c0.511,-0.406 0.769,-0.949 0.769,-1.631c0,-0.75 -0.349,-1.328 -1.039,-1.745c-0.694,-0.416 -1.679,-0.857 -2.958,-1.329c-0.808,-0.297 -1.631,-0.601 -2.474,-0.911c-0.843,-0.309 -1.679,-0.774 -2.512,-1.393c-0.808,-0.62 -1.433,-1.387 -1.867,-2.305c-0.438,-0.917 -0.655,-1.951 -0.655,-3.105c0,-1.086 0.193,-2.084 0.577,-2.992c0.384,-0.906 0.938,-1.683 1.664,-2.335c0.722,-0.651 1.599,-1.162 2.623,-1.537c1.026,-0.372 2.167,-0.561 3.429,-0.561c2.752,0 4.856,0.64 6.304,1.918c1.451,1.278 2.201,3.145 2.244,5.593l-5.594,0c-0.023,-0.916 -0.278,-1.625 -0.767,-2.126c-0.49,-0.5 -1.184,-0.75 -2.078,-0.75c-0.873,0 -1.552,0.213 -2.043,0.637c-0.493,0.426 -0.735,0.982 -0.735,1.663c0,0.426 0.106,0.783 0.319,1.069c0.21,0.287 0.517,0.544 0.91,0.769c0.394,0.224 0.89,0.441 1.484,0.655c0.597,0.214 1.277,0.457 2.046,0.735c0.98,0.362 1.921,0.733 2.83,1.119c0.904,0.384 1.729,0.98 2.474,1.788c1.087,1.193 1.629,2.684 1.629,4.474c0,1.171 -0.206,2.237 -0.618,3.192c-0.42,0.96 -1.013,1.788 -1.794,2.479c-0.775,0.692 -1.728,1.23 -2.843,1.614c-1.119,0.384 -2.371,0.576 -3.752,0.576c-1.302,0 -2.469,-0.176 -3.501,-0.526c-1.034,-0.348 -1.917,-0.853 -2.649,-1.507c-0.736,-0.657 -1.307,-1.451 -1.711,-2.385c-0.405,-0.933 -0.617,-1.984 -0.638,-3.156l5.652,0l0,0.001z" fill="#272661"/>
  <path id="svg_15" d="m44.556,33.63l12.651,0c0.022,0.276 0.046,0.532 0.064,0.766c0.022,0.233 0.032,0.469 0.032,0.702c0,1.405 -0.17,2.701 -0.511,3.883c-0.34,1.184 -0.725,2.114 -1.15,2.795c-1.339,2.111 -2.921,3.664 -4.729,4.667c-1.813,1.002 -3.934,1.5 -6.357,1.5c-1.834,0 -3.518,-0.309 -5.049,-0.927c-1.535,-0.618 -2.898,-1.511 -4.093,-2.684c-1.19,-1.171 -2.09,-2.525 -2.698,-4.06c-0.609,-1.531 -0.913,-3.207 -0.913,-5.016c0,-1.811 0.303,-3.482 0.913,-5.015c0.608,-1.535 1.507,-2.898 2.698,-4.092c1.194,-1.191 2.558,-2.086 4.093,-2.684c1.531,-0.598 3.215,-0.896 5.049,-0.896c3.983,0 7.25,1.44 9.811,4.315l-4.508,3.932c-0.619,-0.919 -1.377,-1.609 -2.271,-2.079c-0.894,-0.467 -1.904,-0.704 -3.032,-0.704c-0.958,0 -1.837,0.177 -2.638,0.529c-0.8,0.352 -1.485,0.848 -2.063,1.487c-0.57,0.639 -1.025,1.4 -1.356,2.284c-0.331,0.885 -0.495,1.859 -0.495,2.922c0,1.066 0.164,2.041 0.495,2.925c0.331,0.883 0.787,1.644 1.356,2.284c0.578,0.64 1.263,1.136 2.063,1.486c0.801,0.352 1.679,0.528 2.638,0.528c1.49,0 2.781,-0.363 3.879,-1.086c1.099,-0.723 1.912,-1.757 2.445,-3.101l-6.324,0l0,-4.661z" fill="#005857"/>
  <polygon id="svg_16" points="61.229,23.053 67.37,23.053 67.37,42.512 73.537,42.512 73.537,47.466 61.229,47.466 " fill="#005857"/>
  <path id="svg_17" d="m83.887,23.053l7.573,0l8.372,24.413l-6.486,0l-0.992,-3.548l-9.392,0l-0.991,3.548l-6.454,0l8.37,-24.413zm7.064,16.263l-3.293,-11.311l-3.289,11.311l6.582,0z" fill="#005857"/>
  <path id="svg_18" d="m107.181,40.404c0.043,0.809 0.332,1.45 0.867,1.918c0.531,0.468 1.266,0.703 2.202,0.703c0.961,0 1.695,-0.204 2.205,-0.609c0.51,-0.403 0.769,-0.948 0.769,-1.631c0,-0.749 -0.347,-1.33 -1.039,-1.745c-0.694,-0.417 -1.677,-0.857 -2.958,-1.328c-0.808,-0.3 -1.634,-0.603 -2.475,-0.912c-0.842,-0.312 -1.676,-0.774 -2.511,-1.392c-0.81,-0.621 -1.43,-1.387 -1.867,-2.306c-0.435,-0.917 -0.657,-1.952 -0.657,-3.105c0,-1.086 0.192,-2.083 0.577,-2.989c0.385,-0.908 0.94,-1.687 1.666,-2.338c0.728,-0.651 1.604,-1.161 2.628,-1.537c1.021,-0.372 2.164,-0.561 3.421,-0.561c2.753,0 4.858,0.641 6.309,1.918c1.451,1.278 2.198,3.142 2.242,5.592l-5.595,0c-0.018,-0.915 -0.274,-1.624 -0.766,-2.125c-0.49,-0.502 -1.18,-0.751 -2.078,-0.751c-0.876,0 -1.555,0.214 -2.045,0.639c-0.489,0.426 -0.734,0.98 -0.734,1.663c0,0.426 0.107,0.782 0.321,1.071c0.213,0.287 0.516,0.542 0.912,0.765c0.392,0.226 0.889,0.444 1.484,0.656c0.596,0.215 1.278,0.459 2.046,0.733c0.979,0.364 1.919,0.737 2.828,1.121c0.906,0.384 1.729,0.979 2.474,1.788c1.089,1.193 1.629,2.683 1.629,4.474c0,1.17 -0.205,2.237 -0.621,3.194c-0.418,0.958 -1.013,1.786 -1.788,2.479c-0.78,0.69 -1.727,1.229 -2.848,1.612c-1.117,0.383 -2.369,0.575 -3.754,0.575c-1.298,0 -2.463,-0.174 -3.497,-0.523c-1.033,-0.35 -1.917,-0.852 -2.654,-1.508c-0.735,-0.657 -1.304,-1.451 -1.708,-2.383c-0.403,-0.934 -0.618,-1.986 -0.641,-3.158l5.656,0z" fill="#005857"/>
  <path id="svg_19" d="m127.821,40.404c0.043,0.809 0.332,1.45 0.867,1.918c0.532,0.468 1.265,0.703 2.204,0.703c0.959,0 1.693,-0.204 2.205,-0.609c0.509,-0.403 0.767,-0.948 0.767,-1.631c0,-0.749 -0.346,-1.33 -1.037,-1.745c-0.694,-0.417 -1.679,-0.857 -2.956,-1.328c-0.813,-0.3 -1.636,-0.603 -2.476,-0.912c-0.843,-0.312 -1.679,-0.774 -2.509,-1.392c-0.813,-0.621 -1.433,-1.387 -1.871,-2.306c-0.433,-0.917 -0.653,-1.952 -0.653,-3.105c0,-1.086 0.192,-2.083 0.575,-2.989c0.385,-0.908 0.941,-1.687 1.667,-2.338c0.723,-0.651 1.6,-1.161 2.622,-1.537c1.025,-0.372 2.167,-0.561 3.428,-0.561c2.752,0 4.855,0.641 6.306,1.918c1.454,1.278 2.197,3.142 2.24,5.592l-5.593,0c-0.019,-0.915 -0.273,-1.624 -0.764,-2.125c-0.491,-0.502 -1.185,-0.751 -2.079,-0.751c-0.873,0 -1.552,0.214 -2.044,0.639c-0.492,0.426 -0.737,0.98 -0.737,1.663c0,0.426 0.108,0.782 0.318,1.071c0.212,0.287 0.518,0.542 0.913,0.765c0.393,0.226 0.893,0.444 1.485,0.656c0.599,0.215 1.281,0.459 2.047,0.733c0.978,0.364 1.92,0.737 2.829,1.121c0.904,0.384 1.727,0.979 2.475,1.788c1.089,1.193 1.629,2.683 1.629,4.474c0,1.17 -0.208,2.237 -0.622,3.194c-0.417,0.958 -1.012,1.786 -1.79,2.479c-0.78,0.69 -1.727,1.229 -2.847,1.612c-1.117,0.383 -2.365,0.575 -3.751,0.575c-1.301,0 -2.464,-0.174 -3.5,-0.523c-1.035,-0.35 -1.917,-0.852 -2.652,-1.508c-0.736,-0.657 -1.303,-1.451 -1.71,-2.383c-0.403,-0.934 -0.614,-1.986 -0.638,-3.158l5.652,0z" fill="#005857"/>
  <g id="svg_20" opacity="0.4">
   <g id="svg_21">
    <defs>
     <rect height="25.48" width="107.946" y="22.583" x="31.837" id="SVGID_3_"/>
    </defs>
    <clipPath id="SVGID_4_">
     <use id="svg_22" xlink:href="#SVGID_3_"/>
    </clipPath>
    <path id="svg_23" d="m44.587,33.714l12.654,0c0.023,0.277 0.039,0.534 0.063,0.769c0.02,0.234 0.034,0.467 0.034,0.702c0,1.405 -0.172,2.7 -0.508,3.884c-0.345,1.182 -0.725,2.116 -1.153,2.797c-1.343,2.107 -2.92,3.661 -4.73,4.664c-1.81,1.003 -3.929,1.5 -6.36,1.5c-1.831,0 -3.515,-0.308 -5.05,-0.923c-1.529,-0.621 -2.895,-1.514 -4.086,-2.688c-1.196,-1.17 -2.093,-2.523 -2.703,-4.059c-0.606,-1.532 -0.911,-3.205 -0.911,-5.017c0,-1.809 0.305,-3.483 0.911,-5.015c0.609,-1.534 1.506,-2.897 2.703,-4.092c1.191,-1.193 2.557,-2.088 4.086,-2.683c1.536,-0.597 3.219,-0.896 5.05,-0.896c3.983,0 7.255,1.438 9.81,4.314l-4.504,3.931c-0.618,-0.917 -1.374,-1.607 -2.268,-2.077c-0.895,-0.469 -1.908,-0.703 -3.038,-0.703c-0.958,0 -1.835,0.175 -2.633,0.527c-0.801,0.352 -1.492,0.848 -2.062,1.488c-0.577,0.638 -1.028,1.401 -1.359,2.284c-0.329,0.882 -0.494,1.858 -0.494,2.922c0,1.065 0.165,2.041 0.494,2.922c0.332,0.887 0.782,1.647 1.359,2.287c0.57,0.641 1.261,1.135 2.062,1.487c0.798,0.351 1.675,0.526 2.633,0.526c1.492,0 2.789,-0.361 3.882,-1.084c1.099,-0.725 1.914,-1.758 2.444,-3.099l-6.326,0l0,-4.668z" fill="#ABBDD2" clip-path="url(#SVGID_4_)"/>
    <polygon id="svg_24" points="61.269,23.139 67.403,23.139 67.403,42.599 73.569,42.599     73.569,47.553 61.269,47.553   " fill="#ABBDD2" clip-path="url(#SVGID_4_)"/>
    <path id="svg_25" d="m83.922,23.139l7.573,0l8.374,24.414l-6.486,0l-0.993,-3.548l-9.394,0l-0.988,3.548l-6.458,0l8.372,-24.414zm7.061,16.263l-3.286,-11.311l-3.294,11.311l6.58,0z" fill="#ABBDD2" clip-path="url(#SVGID_4_)"/>
    <path id="svg_26" d="m107.218,40.49c0.043,0.809 0.328,1.449 0.859,1.917c0.534,0.469 1.269,0.704 2.205,0.704c0.961,0 1.697,-0.203 2.206,-0.61c0.512,-0.406 0.767,-0.95 0.767,-1.631c0,-0.749 -0.347,-1.328 -1.039,-1.745c-0.69,-0.416 -1.675,-0.859 -2.954,-1.328c-0.813,-0.299 -1.637,-0.6 -2.476,-0.913c-0.842,-0.308 -1.679,-0.774 -2.51,-1.393c-0.81,-0.618 -1.433,-1.387 -1.868,-2.305c-0.438,-0.916 -0.654,-1.951 -0.654,-3.102c0,-1.09 0.189,-2.088 0.572,-2.993c0.386,-0.908 0.942,-1.686 1.667,-2.338c0.726,-0.65 1.598,-1.162 2.627,-1.536c1.023,-0.372 2.162,-0.561 3.425,-0.561c2.75,0 4.853,0.64 6.308,1.917c1.451,1.278 2.195,3.141 2.238,5.592l-5.591,0c-0.018,-0.915 -0.277,-1.623 -0.764,-2.124c-0.49,-0.501 -1.186,-0.75 -2.076,-0.75c-0.876,0 -1.56,0.212 -2.047,0.637c-0.492,0.427 -0.734,0.982 -0.734,1.661c0,0.428 0.102,0.784 0.318,1.072c0.212,0.287 0.517,0.543 0.908,0.766c0.394,0.224 0.89,0.443 1.487,0.656c0.597,0.213 1.279,0.458 2.045,0.736c0.979,0.362 1.921,0.735 2.829,1.119c0.905,0.384 1.729,0.98 2.477,1.789c1.086,1.194 1.629,2.683 1.629,4.473c0,1.17 -0.211,2.237 -0.623,3.195c-0.417,0.957 -1.011,1.785 -1.791,2.477c-0.778,0.692 -1.727,1.233 -2.842,1.615c-1.119,0.381 -2.37,0.573 -3.755,0.573c-1.302,0 -2.466,-0.173 -3.5,-0.524c-1.032,-0.35 -1.919,-0.852 -2.654,-1.506c-0.733,-0.657 -1.304,-1.451 -1.707,-2.386c-0.407,-0.935 -0.616,-1.985 -0.643,-3.155l5.661,0l0,0.001z" fill="#ABBDD2" clip-path="url(#SVGID_4_)"/>
    <path id="svg_27" d="m127.926,40.414c0.043,0.809 0.329,1.449 0.862,1.916c0.534,0.47 1.268,0.705 2.206,0.705c0.961,0 1.695,-0.204 2.206,-0.61c0.509,-0.405 0.768,-0.949 0.768,-1.631c0,-0.749 -0.349,-1.328 -1.04,-1.745c-0.693,-0.416 -1.678,-0.858 -2.959,-1.328c-0.806,-0.298 -1.633,-0.6 -2.475,-0.912c-0.843,-0.309 -1.676,-0.774 -2.506,-1.393c-0.81,-0.618 -1.434,-1.387 -1.869,-2.306c-0.437,-0.915 -0.655,-1.952 -0.655,-3.102c0,-1.089 0.188,-2.086 0.577,-2.992c0.381,-0.908 0.937,-1.686 1.664,-2.337c0.722,-0.65 1.599,-1.162 2.622,-1.536c1.026,-0.372 2.167,-0.561 3.428,-0.561c2.754,0 4.857,0.64 6.305,1.917c1.453,1.277 2.201,3.141 2.244,5.592l-5.595,0c-0.018,-0.916 -0.278,-1.624 -0.766,-2.124c-0.49,-0.501 -1.18,-0.752 -2.075,-0.752c-0.876,0 -1.558,0.212 -2.047,0.639c-0.491,0.427 -0.737,0.981 -0.737,1.662c0,0.427 0.107,0.784 0.318,1.072c0.215,0.287 0.519,0.543 0.915,0.765c0.394,0.225 0.888,0.444 1.487,0.656c0.592,0.214 1.279,0.458 2.043,0.736c0.981,0.362 1.924,0.735 2.828,1.119c0.906,0.384 1.732,0.98 2.478,1.789c1.084,1.193 1.629,2.683 1.629,4.472c0,1.171 -0.208,2.239 -0.625,3.195c-0.417,0.958 -1.011,1.786 -1.789,2.478c-0.776,0.692 -1.725,1.233 -2.844,1.615c-1.117,0.382 -2.369,0.572 -3.755,0.572c-1.298,0 -2.465,-0.172 -3.498,-0.523c-1.03,-0.35 -1.916,-0.852 -2.653,-1.507c-0.733,-0.657 -1.303,-1.45 -1.708,-2.384c-0.407,-0.935 -0.619,-1.986 -0.641,-3.156l5.657,0l0,-0.001z" fill="#ABBDD2" clip-path="url(#SVGID_4_)"/>
   </g>
  </g>
  <g id="svg_28" opacity="0.66">
   <g id="svg_29">
    <defs>
     <rect height="29.643" width="28.957" y="19.628" x="30.472" id="SVGID_5_"/>
    </defs>
    <clipPath id="SVGID_6_">
     <use id="svg_30" xlink:href="#SVGID_5_"/>
    </clipPath>
    <defs>
     <filter height="29.644" width="28.958" y="19.628" x="30.472" filterUnits="userSpaceOnUse" id="Adobe_OpacityMaskFilter"/>
    </defs>
    <mask id="SVGID_7_" height="29.644" width="28.958" y="19.628" x="30.472" maskUnits="userSpaceOnUse">
     <g id="svg_31" filter="url(#Adobe_OpacityMaskFilter)">
      <g id="svg_32">
       <defs>
        <rect height="29.643" width="28.957" y="19.628" x="30.472" id="SVGID_8_"/>
       </defs>
       <clipPath id="SVGID_9_">
        <use id="svg_33" xlink:href="#SVGID_8_"/>
       </clipPath>
       <rect id="svg_34" height="31.681" width="30.986" clip-path="url(#SVGID_9_)" y="18.604" x="29.459"/>
       <g id="svg_35">
        <g id="svg_36">
         <defs>
          <path d="m42.832,49.118c-7.916,-1.182 -13.373,-8.705 -12.203,-16.803c1.151,-8.095 8.521,-13.711 16.438,-12.53c7.908,1.179 13.377,8.691 12.203,16.8c-1.156,8.097 -8.52,13.701 -16.438,12.533" id="SVGID_10_"/>
         </defs>
         <clipPath id="SVGID_11_">
          <use id="svg_37" xlink:href="#SVGID_10_"/>
         </clipPath>
         <polygon id="svg_38" points="64.911,19.268 59.796,54.797 24.994,49.622          30.108,14.093        " fill="url(#SVGID_12_)" clip-path="url(#SVGID_11_)"/>
        </g>
       </g>
      </g>
     </g>
    </mask>
    <g id="svg_39" mask="url(#SVGID_7_)" clip-path="url(#SVGID_6_)">
     <g id="svg_40">
      <defs>
       <rect height="29.643" width="28.957" y="19.628" x="30.472" id="SVGID_13_"/>
      </defs>
      <clipPath id="SVGID_14_">
       <use id="svg_41" xlink:href="#SVGID_13_"/>
      </clipPath>
      <path id="svg_42" d="m42.833,49.118c-7.916,-1.182 -13.373,-8.705 -12.204,-16.803c1.152,-8.096 8.521,-13.711 16.439,-12.53c7.908,1.179 13.377,8.691 12.202,16.8c-1.155,8.097 -8.52,13.7 -16.437,12.533" fill="#FFFFFF" clip-path="url(#SVGID_14_)"/>
     </g>
    </g>
    <defs>
     <filter height="19.353" width="18.914" y="24.776" x="35.486" filterUnits="userSpaceOnUse" id="Adobe_OpacityMaskFilter_1_"/>
    </defs>
    <mask id="SVGID_15_" height="19.353" width="18.914" y="24.776" x="35.486" maskUnits="userSpaceOnUse">
     <g id="svg_43" filter="url(#Adobe_OpacityMaskFilter_1_)">
      <g id="svg_44">
       <defs>
        <rect height="19.352" width="18.913" y="24.776" x="35.487" id="SVGID_16_"/>
       </defs>
       <clipPath id="SVGID_17_">
        <use id="svg_45" xlink:href="#SVGID_16_"/>
       </clipPath>
       <rect id="svg_46" height="20.689" width="20.232" clip-path="url(#SVGID_17_)" y="24.112" x="34.833"/>
       <g id="svg_47">
        <g id="svg_48">
         <defs>
          <path d="m43.561,44.024c-5.151,-0.765 -8.728,-5.678 -7.973,-10.965c0.766,-5.289 5.564,-8.947 10.735,-8.182c5.164,0.767 8.743,5.677 7.974,10.965c-0.753,5.289 -5.558,8.961 -10.736,8.182" id="SVGID_18_"/>
         </defs>
         <clipPath id="SVGID_19_">
          <use id="svg_49" xlink:href="#SVGID_18_"/>
         </clipPath>
         <polygon id="svg_50" points="57.981,24.546 54.641,47.748 31.917,44.369          35.257,21.167        " fill="url(#SVGID_20_)" clip-path="url(#SVGID_19_)"/>
        </g>
       </g>
      </g>
     </g>
    </mask>
    <g id="svg_51" mask="url(#SVGID_15_)" clip-path="url(#SVGID_6_)">
     <g id="svg_52">
      <defs>
       <rect height="19.352" width="18.912" y="24.776" x="35.487" id="SVGID_21_"/>
      </defs>
      <clipPath id="SVGID_22_">
       <use id="svg_53" xlink:href="#SVGID_21_"/>
      </clipPath>
      <path id="svg_54" d="m43.561,44.024c-5.151,-0.765 -8.728,-5.678 -7.975,-10.965c0.768,-5.289 5.566,-8.947 10.736,-8.182c5.164,0.767 8.743,5.677 7.974,10.965c-0.752,5.289 -5.557,8.961 -10.735,8.182" fill="#FFFFFF" clip-path="url(#SVGID_22_)"/>
     </g>
    </g>
    <defs>
     <filter height="12.473" width="12.19" y="28.213" x="38.855" filterUnits="userSpaceOnUse" id="Adobe_OpacityMaskFilter_2_"/>
    </defs>
    <mask id="SVGID_23_" height="12.473" width="12.19" y="28.213" x="38.855" maskUnits="userSpaceOnUse">
     <g id="svg_55" filter="url(#Adobe_OpacityMaskFilter_2_)">
      <g id="svg_56">
       <defs>
        <rect height="12.473" width="12.19" y="28.213" x="38.855" id="SVGID_24_"/>
       </defs>
       <clipPath id="SVGID_25_">
        <use id="svg_57" xlink:href="#SVGID_24_"/>
       </clipPath>
       <rect id="svg_58" height="13.335" width="13.035" clip-path="url(#SVGID_25_)" y="27.783" x="38.431"/>
       <g id="svg_59">
        <g id="svg_60">
         <defs>
          <path d="m44.061,40.62c-3.332,-0.485 -5.629,-3.66 -5.139,-7.065c0.481,-3.414 3.583,-5.772 6.917,-5.275c3.328,0.488 5.628,3.659 5.143,7.063c-0.491,3.418 -3.59,5.776 -6.921,5.277" id="SVGID_26_"/>
         </defs>
         <clipPath id="SVGID_27_">
          <use id="svg_61" xlink:href="#SVGID_26_"/>
         </clipPath>
         <polygon id="svg_62" points="53.345,28.062 51.193,43.016 36.551,40.839          38.705,25.885        " fill="url(#SVGID_28_)" clip-path="url(#SVGID_27_)"/>
        </g>
       </g>
      </g>
     </g>
    </mask>
    <g id="svg_63" mask="url(#SVGID_23_)" clip-path="url(#SVGID_6_)">
     <g id="svg_64">
      <defs>
       <rect height="12.473" width="12.19" y="28.213" x="38.855" id="SVGID_29_"/>
      </defs>
      <clipPath id="SVGID_30_">
       <use id="svg_65" xlink:href="#SVGID_29_"/>
      </clipPath>
      <path id="svg_66" d="m44.061,40.62c-3.332,-0.485 -5.629,-3.66 -5.139,-7.065c0.481,-3.414 3.583,-5.772 6.917,-5.275c3.328,0.486 5.628,3.659 5.143,7.063c-0.491,3.418 -3.59,5.776 -6.921,5.277" fill="#FFFFFF" clip-path="url(#SVGID_30_)"/>
     </g>
    </g>
   </g>
  </g>
  <g id="svg_67" opacity="0.66">
   <g id="svg_68">
    <defs>
     <rect height="8.556" width="55.289" y="29.711" x="17.231" id="SVGID_31_"/>
    </defs>
    <clipPath id="SVGID_32_">
     <use id="svg_69" xlink:href="#SVGID_31_"/>
    </clipPath>
    <defs>
     <filter height="8.556" width="55.289" y="29.711" x="17.23" filterUnits="userSpaceOnUse" id="Adobe_OpacityMaskFilter_3_"/>
    </defs>
    <mask id="SVGID_33_" height="8.556" width="55.289" y="29.711" x="17.23" maskUnits="userSpaceOnUse">
     <g id="svg_70" filter="url(#Adobe_OpacityMaskFilter_3_)">
      <g id="svg_71">
       <defs>
        <rect height="8.556" width="55.289" y="29.711" x="17.231" id="SVGID_34_"/>
       </defs>
       <clipPath id="SVGID_35_">
        <use id="svg_72" xlink:href="#SVGID_34_"/>
       </clipPath>
       <rect id="svg_73" height="9.52" width="55.471" clip-path="url(#SVGID_35_)" y="29.23" x="17.135"/>
       <g id="svg_74">
        <g id="svg_75">
         <defs>
          <path d="m44.706,35.162c-15.282,-2.285 -27.571,-4.644 -27.475,-5.287c0.087,-0.645 12.534,0.68 27.815,2.953c15.269,2.273 27.56,4.63 27.473,5.275c-0.083,0.646 -12.546,-0.679 -27.813,-2.941" id="SVGID_36_"/>
         </defs>
         <clipPath id="SVGID_37_">
          <use id="svg_76" xlink:href="#SVGID_36_"/>
         </clipPath>
         <polygon id="svg_77" points="73.968,29.433 71.424,46.826 15.771,38.546          18.316,21.153        " fill="url(#SVGID_38_)" clip-path="url(#SVGID_37_)"/>
        </g>
       </g>
      </g>
     </g>
    </mask>
    <g id="svg_78" mask="url(#SVGID_33_)" clip-path="url(#SVGID_32_)">
     <g id="svg_79">
      <defs>
       <rect height="8.556" width="55.289" y="29.711" x="17.231" id="SVGID_39_"/>
      </defs>
      <clipPath id="SVGID_40_">
       <use id="svg_80" xlink:href="#SVGID_39_"/>
      </clipPath>
      <path id="svg_81" d="m44.706,35.162c-15.282,-2.285 -27.571,-4.644 -27.475,-5.287c0.087,-0.645 12.534,0.68 27.815,2.952c15.27,2.274 27.56,4.63 27.473,5.276c-0.082,0.647 -12.546,-0.68 -27.813,-2.941" fill="#FFFFFF" clip-path="url(#SVGID_40_)"/>
     </g>
    </g>
    <defs>
     <filter height="5.582" width="36.108" y="31.204" x="26.82" filterUnits="userSpaceOnUse" id="Adobe_OpacityMaskFilter_4_"/>
    </defs>
    <mask id="SVGID_41_" height="5.582" width="36.108" y="31.204" x="26.82" maskUnits="userSpaceOnUse">
     <g id="svg_82" filter="url(#Adobe_OpacityMaskFilter_4_)">
      <g id="svg_83">
       <defs>
        <rect height="5.581" width="36.106" y="31.205" x="26.82" id="SVGID_42_"/>
       </defs>
       <clipPath id="SVGID_43_">
        <use id="svg_84" xlink:href="#SVGID_42_"/>
       </clipPath>
       <rect id="svg_85" height="6.201" width="36.21" clip-path="url(#SVGID_43_)" y="30.894" x="26.761"/>
       <g id="svg_86">
        <g id="svg_87">
         <defs>
          <path d="m44.765,34.748c-9.979,-1.483 -18.003,-3.025 -17.944,-3.438c0.066,-0.416 8.185,0.437 18.166,1.919c9.972,1.495 17.987,3.026 17.941,3.455c-0.063,0.411 -8.195,-0.452 -18.163,-1.936" id="SVGID_44_"/>
         </defs>
         <clipPath id="SVGID_45_">
          <use id="svg_88" xlink:href="#SVGID_44_"/>
         </clipPath>
         <polygon id="svg_89" points="63.861,31.026 62.202,42.368 25.873,36.962          27.532,25.622        " fill="url(#SVGID_46_)" clip-path="url(#SVGID_45_)"/>
        </g>
       </g>
      </g>
     </g>
    </mask>
    <g id="svg_90" mask="url(#SVGID_41_)" clip-path="url(#SVGID_32_)">
     <g id="svg_91">
      <defs>
       <rect height="5.581" width="36.106" y="31.205" x="26.82" id="SVGID_47_"/>
      </defs>
      <clipPath id="SVGID_48_">
       <use id="svg_92" xlink:href="#SVGID_47_"/>
      </clipPath>
      <path id="svg_93" d="m44.765,34.748c-9.979,-1.483 -18.003,-3.024 -17.944,-3.438c0.066,-0.416 8.185,0.437 18.167,1.92c9.971,1.495 17.986,3.025 17.941,3.454c-0.064,0.41 -8.196,-0.453 -18.164,-1.936" fill="#FFFFFF" clip-path="url(#SVGID_48_)"/>
     </g>
    </g>
    <defs>
     <filter height="3.597" width="23.255" y="32.19" x="33.24" filterUnits="userSpaceOnUse" id="Adobe_OpacityMaskFilter_5_"/>
    </defs>
    <mask id="SVGID_49_" height="3.597" width="23.255" y="32.19" x="33.24" maskUnits="userSpaceOnUse">
     <g id="svg_94" filter="url(#Adobe_OpacityMaskFilter_5_)">
      <g id="svg_95">
       <defs>
        <rect height="3.597" width="23.254" y="32.191" x="33.241" id="SVGID_50_"/>
       </defs>
       <clipPath id="SVGID_51_">
        <use id="svg_96" xlink:href="#SVGID_50_"/>
       </clipPath>
       <rect id="svg_97" height="3.998" width="23.343" clip-path="url(#SVGID_51_)" y="31.99" x="33.191"/>
       <g id="svg_98">
        <g id="svg_99">
         <defs>
          <path d="m44.802,34.482c-6.432,-0.949 -11.61,-1.958 -11.561,-2.225c0.036,-0.267 5.278,0.292 11.694,1.252c6.436,0.947 11.6,1.946 11.561,2.212c-0.033,0.266 -5.275,-0.289 -11.694,-1.239" id="SVGID_52_"/>
         </defs>
         <clipPath id="SVGID_53_">
          <use id="svg_100" xlink:href="#SVGID_52_"/>
         </clipPath>
         <polygon id="svg_101" points="57.107,32.076 56.037,39.387 32.619,35.902          33.688,28.592        " fill="url(#SVGID_54_)" clip-path="url(#SVGID_53_)"/>
        </g>
       </g>
      </g>
     </g>
    </mask>
    <g id="svg_102" mask="url(#SVGID_49_)" clip-path="url(#SVGID_32_)">
     <g id="svg_103">
      <defs>
       <rect height="3.597" width="23.254" y="32.191" x="33.241" id="SVGID_55_"/>
      </defs>
      <clipPath id="SVGID_56_">
       <use id="svg_104" xlink:href="#SVGID_55_"/>
      </clipPath>
      <path id="svg_105" d="m44.802,34.483c-6.432,-0.95 -11.61,-1.959 -11.561,-2.226c0.036,-0.268 5.278,0.292 11.694,1.251c6.436,0.948 11.6,1.946 11.561,2.212c-0.033,0.268 -5.275,-0.288 -11.694,-1.237" fill="#FFFFFF" clip-path="url(#SVGID_56_)"/>
     </g>
    </g>
   </g>
  </g>
  <g id="svg_106" opacity="0.66">
   <g id="svg_107">
    <defs>
     <rect height="56.198" width="8.383" y="5.598" x="40.445" id="SVGID_57_"/>
    </defs>
    <clipPath id="SVGID_58_">
     <use id="svg_108" xlink:href="#SVGID_57_"/>
    </clipPath>
    <defs>
     <filter height="56.198" width="8.383" y="5.598" x="40.445" filterUnits="userSpaceOnUse" id="Adobe_OpacityMaskFilter_6_"/>
    </defs>
    <mask id="SVGID_59_" height="56.198" width="8.383" y="5.598" x="40.445" maskUnits="userSpaceOnUse">
     <g id="svg_109" filter="url(#Adobe_OpacityMaskFilter_6_)">
      <g id="svg_110">
       <defs>
        <rect height="56.198" width="8.383" y="5.598" x="40.445" id="SVGID_60_"/>
       </defs>
       <clipPath id="SVGID_61_">
        <use id="svg_111" xlink:href="#SVGID_60_"/>
       </clipPath>
       <rect id="svg_112" height="56.382" width="9.303" clip-path="url(#SVGID_61_)" y="5.5" x="39.987"/>
       <g id="svg_113">
        <g id="svg_114">
         <defs>
          <path d="m45.738,33.85c-2.234,15.535 -4.547,28.032 -5.144,27.945c-0.607,-0.083 0.708,-12.74 2.942,-28.262c2.24,-15.525 4.535,-28.033 5.145,-27.934c0.607,0.084 -0.715,12.727 -2.943,28.251" id="SVGID_62_"/>
         </defs>
         <clipPath id="SVGID_63_">
          <use id="svg_115" xlink:href="#SVGID_62_"/>
         </clipPath>
         <polygon id="svg_116" points="40.182,4.138 57.235,6.688 49.092,63.244 32.04,60.694                 " fill="url(#SVGID_64_)" clip-path="url(#SVGID_63_)"/>
        </g>
       </g>
      </g>
     </g>
    </mask>
    <g id="svg_117" mask="url(#SVGID_59_)" clip-path="url(#SVGID_58_)">
     <g id="svg_118">
      <defs>
       <rect height="56.198" width="8.383" y="5.598" x="40.445" id="SVGID_65_"/>
      </defs>
      <clipPath id="SVGID_66_">
       <use id="svg_119" xlink:href="#SVGID_65_"/>
      </clipPath>
      <path id="svg_120" d="m45.738,33.85c-2.234,15.537 -4.546,28.032 -5.144,27.945c-0.608,-0.083 0.708,-12.739 2.942,-28.261c2.24,-15.527 4.535,-28.035 5.145,-27.936c0.607,0.085 -0.715,12.729 -2.943,28.252" fill="#FFFFFF" clip-path="url(#SVGID_66_)"/>
     </g>
    </g>
    <defs>
     <filter height="36.701" width="5.482" y="15.336" x="41.894" filterUnits="userSpaceOnUse" id="Adobe_OpacityMaskFilter_7_"/>
    </defs>
    <mask id="SVGID_67_" height="36.701" width="5.482" y="15.336" x="41.894" maskUnits="userSpaceOnUse">
     <g id="svg_121" filter="url(#Adobe_OpacityMaskFilter_7_)">
      <g id="svg_122">
       <defs>
        <rect height="36.7" width="5.481" y="15.336" x="41.895" id="SVGID_68_"/>
       </defs>
       <clipPath id="SVGID_69_">
        <use id="svg_123" xlink:href="#SVGID_68_"/>
       </clipPath>
       <rect id="svg_124" height="36.812" width="6.081" clip-path="url(#SVGID_69_)" y="15.285" x="41.589"/>
       <g id="svg_125">
        <g id="svg_126">
         <defs>
          <path d="m45.348,33.799c-1.458,10.127 -2.963,18.297 -3.355,18.237c-0.404,-0.049 0.475,-8.317 1.933,-18.453c1.46,-10.129 2.951,-18.298 3.357,-18.247c0.388,0.074 -0.472,8.327 -1.935,18.463" id="SVGID_70_"/>
         </defs>
         <clipPath id="SVGID_71_">
          <use id="svg_127" xlink:href="#SVGID_70_"/>
         </clipPath>
         <polygon id="svg_128" points="41.717,14.394 52.86,16.061 47.543,52.987 36.4,51.321                 " fill="url(#SVGID_72_)" clip-path="url(#SVGID_71_)"/>
        </g>
       </g>
      </g>
     </g>
    </mask>
    <g id="svg_129" mask="url(#SVGID_67_)" clip-path="url(#SVGID_58_)">
     <g id="svg_130">
      <defs>
       <rect height="36.7" width="5.481" y="15.336" x="41.895" id="SVGID_73_"/>
      </defs>
      <clipPath id="SVGID_74_">
       <use id="svg_131" xlink:href="#SVGID_73_"/>
      </clipPath>
      <path id="svg_132" d="m45.348,33.799c-1.459,10.126 -2.964,18.299 -3.357,18.237c-0.401,-0.049 0.478,-8.316 1.935,-18.453c1.459,-10.129 2.951,-18.299 3.356,-18.248c0.388,0.074 -0.472,8.327 -1.934,18.464" fill="#FFFFFF" clip-path="url(#SVGID_74_)"/>
     </g>
    </g>
    <defs>
     <filter height="23.648" width="3.527" y="21.873" x="42.868" filterUnits="userSpaceOnUse" id="Adobe_OpacityMaskFilter_8_"/>
    </defs>
    <mask id="SVGID_75_" height="23.648" width="3.527" y="21.873" x="42.868" maskUnits="userSpaceOnUse">
     <g id="svg_133" filter="url(#Adobe_OpacityMaskFilter_8_)">
      <g id="svg_134">
       <defs>
        <rect height="23.648" width="3.527" y="21.873" x="42.868" id="SVGID_76_"/>
       </defs>
       <clipPath id="SVGID_77_">
        <use id="svg_135" xlink:href="#SVGID_76_"/>
       </clipPath>
       <rect id="svg_136" height="23.73" width="3.917" clip-path="url(#SVGID_77_)" y="21.826" x="42.675"/>
       <g id="svg_137">
        <g id="svg_138">
         <defs>
          <path d="m45.097,33.764c-0.938,6.527 -1.908,11.791 -2.166,11.757c-0.257,-0.041 0.303,-5.362 1.241,-11.891c0.945,-6.541 1.922,-11.804 2.161,-11.756c0.257,0.038 -0.305,5.35 -1.236,11.89" id="SVGID_78_"/>
         </defs>
         <clipPath id="SVGID_79_">
          <use id="svg_139" xlink:href="#SVGID_78_"/>
         </clipPath>
         <polygon id="svg_140" points="42.757,21.253 49.936,22.326 46.508,46.129          39.331,45.056        " fill="url(#SVGID_80_)" clip-path="url(#SVGID_79_)"/>
        </g>
       </g>
      </g>
     </g>
    </mask>
    <g id="svg_141" mask="url(#SVGID_75_)" clip-path="url(#SVGID_58_)">
     <g id="svg_142">
      <defs>
       <rect height="23.648" width="3.527" y="21.873" x="42.868" id="SVGID_81_"/>
      </defs>
      <clipPath id="SVGID_82_">
       <use id="svg_143" xlink:href="#SVGID_81_"/>
      </clipPath>
      <path id="svg_144" d="m45.096,33.764c-0.938,6.527 -1.908,11.791 -2.165,11.757c-0.258,-0.041 0.302,-5.362 1.241,-11.891c0.945,-6.541 1.921,-11.804 2.16,-11.756c0.258,0.037 -0.304,5.35 -1.236,11.89" fill="#FFFFFF" clip-path="url(#SVGID_82_)"/>
     </g>
    </g>
   </g>
  </g>
  <path id="svg_145" d="m207.133,13.418c-5.979,11.893 -15.642,22.593 -28.059,31.428c-21.71,15.411 -51.769,25.005 -85.027,25.005c-13.892,0 -27.24,-1.682 -39.643,-4.752c-13.325,-3.294 -25.59,-8.22 -36.291,-14.416l0,2.878c10.644,6.027 22.723,10.807 35.801,14.042c12.571,3.118 26.071,4.803 40.132,4.803c33.638,0 64.107,-9.674 86.255,-25.4c13.089,-9.292 23.298,-20.754 29.442,-33.586l-2.61,0l0,-0.002z" fill="#ABBDD2"/>
  <line id="svg_146" y2="500.334" x2="320.891" y1="-94.946" x1="320.891" fill="none"/>
  <line id="svg_147" y2="-94.946" x2="320.891" y1="500.334" x1="320.891" fill="none"/>
 </g>
</svg>